<?xml version="1.0" encoding="UTF-8"?>
<svg id="Lager_1" data-name="Lager 1" xmlns="http://www.w3.org/2000/svg" viewBox="0 0 96 96">
  <defs>
    <style>
      .cls-1 {
        fill: #fff;
      }

      .cls-2 {
        fill: #00a5dd;
      }
    </style>
  </defs>
  <ellipse class="cls-2" cx="48" cy="48" rx="32.93" ry="48.53" transform="translate(-8.73 85.28) rotate(-78.32)"/>
  <path class="cls-1" d="M64.92,55.36c4.11-2.7,6.61-7.27,6.67-12.18.07-8.43-7.43-15.1-16.65-15.1-6.34-.12-12.22,3.31-15.23,8.89-.84-.15-1.7-.23-2.56-.22-6.71-.29-12.4,4.89-12.74,11.61.07,3.68,1.93,7.09,4.98,9.14-.36,1.69-1.2,3.23-2.42,4.45-.4.3-.55.83-.36,1.29.17.42.57.69,1.02.69h.13c2.84-.51,5.43-1.94,7.38-4.07.66.1,1.33.15,2,.16,3.49.02,6.85-1.33,9.36-3.76,2.61,1.43,5.54,2.2,8.51,2.22.95,0,1.89-.07,2.82-.22,2.57,2.81,5.98,4.7,9.72,5.4h.13c.45,0,.86-.27,1.02-.69.19-.46.06-1-.33-1.31-1.77-1.7-2.98-3.89-3.47-6.29ZM34.95,57.47c-.39-.07-.78.07-1.04.36-.93,1.07-2.03,1.96-3.27,2.65.46-1.02.84-2.09,1.11-3.18.13-.48-.07-.98-.49-1.24-2.81-1.58-4.57-4.53-4.62-7.76.33-5.48,5.03-9.67,10.52-9.38.57,0,1.15.06,1.71.16-.43,1.33-.65,2.72-.64,4.11.06,4.72,2.39,9.12,6.25,11.83-2.62,2.26-6.13,3.17-9.52,2.47ZM46.07,53.36c-3.39-2.29-5.46-6.09-5.54-10.18,0-1.22.2-2.44.58-3.6,3.85,1.19,6.53,4.69,6.67,8.71-.04,1.84-.67,3.62-1.8,5.07h.09ZM59.09,56.23c-.22-.24-.52-.38-.84-.38h-.2c-3.41.66-6.94.18-10.05-1.38,1.28-1.82,1.97-3.98,1.98-6.2-.15-4.92-3.38-9.22-8.07-10.74,2.71-4.59,7.7-7.35,13.03-7.23,8,0,14.5,5.82,14.5,12.98-.08,4.45-2.51,8.53-6.38,10.74-.42.25-.62.75-.49,1.22.43,1.83,1.09,3.59,1.98,5.25-2.12-1.02-4.01-2.47-5.54-4.27h.09Z"/>
</svg>