<?xml version="1.0" encoding="UTF-8"?>
<svg id="Lager_1" data-name="Lager 1" xmlns="http://www.w3.org/2000/svg" viewBox="0 0 96 96">
  <defs>
    <style>
      .cls-1 {
        fill: none;
      }

      .cls-2 {
        fill: #fff;
      }

      .cls-3 {
        fill: #00a5dd;
      }
    </style>
  </defs>
  <ellipse class="cls-3" cx="48" cy="48" rx="32.93" ry="48.53" transform="translate(-8.73 85.28) rotate(-78.32)"/>
  <g>
    <path class="cls-1" d="M20.5,20.5h55v55H20.5V20.5Z"/>
    <path class="cls-2" d="M34.19,48.39l.94-.52c-.05-3.87-.13-7.45-.22-10.75,0-.81.02-1.61.09-2.39.1-1.98.81-3.87,2.12-5.66.82-1.05,2.04-1.93,3.66-2.63,1.02-.48,2.55-.86,4.58-1.14,2.15-.16,3.61-.12,4.4.12,1.75.45,2.86,1.03,3.32,1.73.59.48,1.11,1.66,1.58,3.52.29,1.08.4,3.46.3,7.15l-.83,14.76c-.09,1.45-.22,2.9-.39,4.34-.21,2.52-.81,4.38-1.81,5.57-.9.84-2.13,1.43-3.66,1.78-2.26.66-4.77,1.07-7.52,1.22-1.3.04-2.44-.08-3.42-.36-.83-.14-1.69-.78-2.58-1.91-.64-1.07-.95-2.27-.95-3.61-.03-.22,0-.87.12-1.94l1.06-5.71c.18-1.42.27-2.31.27-2.66.14-2.89,0-6.97-.41-12.24l-.84,2.47c.21,6.79-.2,11.06-1.24,12.79-.61.93-1.19,1.46-1.72,1.57-.33.26-1.82.47-4.47.63-.5.1-.8.3-.9.61.07.3.36.46.88.5,2.6-.05,3.94-.02,4.02.09.36.03.76.25,1.19.65.2.16.37.57.51,1.23.03.08.05.42.04,1-.12,1.7-.15,2.65-.1,2.85.03.58.15,1.16.37,1.73.42,1.19,1.46,2.15,3.13,2.87,1.69.7,4.2.86,7.52.49,4.36-.63,7.32-1.44,8.88-2.41,1.58-.79,2.51-2.16,2.8-4.09.15-1.09.28-2.36.37-3.81l1.07-15.91c.25-4.02.17-7.34-.23-9.97-.32-1.85-.99-3.24-2.01-4.17-1.51-1.53-4.74-2.21-9.67-2.03-4.12.27-6.93,1.28-8.45,3.03-1.2,1.41-1.89,3.54-2.08,6.41-.25,3.31-.16,8.25.27,14.81"/>
    <path class="cls-2" d="M42.28,65.89l.02.56c-.03,2.99,1.04,4.7,3.21,5.11,3.22.64,7.46.34,12.72-.9,2.07-.75,3.41-1.8,4.03-3.14.6-1.07,1.07-2.22,1.39-3.41.07-.21.19-.72.35-1.52.09-.4.15-1.04.19-1.91.05-.21.09-.32.13-.34.14-.16.51-.36,1.12-.59l4.33-1.55c.37-.22.56-.61.56-1.17,0-.32-.15-.58-.45-.77l-1.66-.37c-.48-.21-.76-.37-.84-.5-.37-.32-.68-.87-.93-1.64-.36-1.23-.6-2.81-.72-4.74-.11-1.32-.2-3.84-.28-7.56-.08-1.42-.14-2.24-.19-2.47-.28-1.71-.61-2.78-.99-3.22-.67-.99-1.65-1.67-2.96-2.03-1.05-.34-2.75-.59-5.08-.76l-.21,1.37c2.7.03,4.38.22,5.04.56,1.15.44,1.92,1.09,2.33,1.94.35.49.65,1.64.9,3.44.05.25.1,1.06.16,2.43.06,3.76.13,6.13.2,7.13.12,2.03.26,3.42.41,4.16.21.99.45,1.63.72,1.92.14.27.7.7,1.67,1.27.1.12.12.2.07.22.08.13-1.07.47-3.43,1.03-.27.1-.5.26-.68.5-.19.23-.34.58-.46,1.05l-.65,4.27c-.14.79-.38,1.56-.71,2.29-.67,1.31-1.79,2.18-3.37,2.63-5.67,1.35-9.6,1.8-11.78,1.37-1-.23-1.64-.71-1.93-1.46-.27-.59-.36-1.59-.28-2.99l-1.95-.22M43.36,32.95h-.05c-.36,0-.7.01-1.05.02-.19,0-.89.03-2.09.09-.32.01-.63.02-.95.03-.45,0-.7,0-.74,0-.14,0-.29-.02-.43-.05-.34-.12-.31-.34.12-.64.31-.2.81-.31,1.52-.32.11,0,.22,0,.33,0,.7.03,1.1.04,1.21.04.13,0,.51,0,1.14.01.51,0,1.02,0,1.53-.02l2.56-.06c.17,0,.35,0,.52,0,.34,0,.69.03,1.03.07l.25.04c.15.03.29.06.43.09.42.1.82.25,1.2.45.16.17.08.26-.23.29-.29.03-.78.04-1.47.04-.15,0-1.39-.02-3.73-.07-.37,0-.74,0-1.12,0M44.55,36.48h-.11l-2.55.03c-.3,0-.6,0-.9,0-.31,0-.63-.01-.94-.03-.17,0-.34-.04-.5-.08-.18-.06-.24-.16-.18-.29.09-.15.24-.25.44-.33.36-.13,1.01-.2,1.96-.2.69,0,1.56,0,2.6.03,1.89.04,3.2.08,3.92.1,1.5.05,2.34.11,2.53.18.07.03.1.06.08.09-.03.06-.09.11-.2.14-.57.14-1.11.24-1.6.29-.26.03-.7.06-1.32.07-.18,0-.35,0-.53,0-.9,0-1.81-.01-2.71-.01M49.13,39.69h-.09c-.06,0-1.22.03-3.47.05-.59,0-1.19.03-1.78.06l-.35.02c-.49.04-.95.08-1.37.13-.55.05-1.1.05-1.64,0-.27-.02-.46-.05-.57-.09-.26-.12-.33-.26-.21-.4.01-.06.26-.13.74-.2,1.04-.12,3.12-.22,6.26-.3.47-.01.95-.02,1.42-.02.48,0,.95,0,1.41.03.43.02.9.09,1.41.23.15.04.29.12.39.24.08.07.05.12-.07.15-.14.02-.27.04-.41.04l-1.67.04M47.28,44.53h-.12c-.26,0-.53,0-.79.01-2.28.05-3.48.08-3.58.08-1.19.01-1.88.01-2.06,0-.41-.02-.66-.07-.75-.15-.09-.13-.03-.25.18-.35.14-.06.29-.1.44-.13.11-.02.21-.03.32-.03.04,0,.15,0,.33.01.66.07,1.32.11,1.98.1.32,0,.64-.01.95-.03.08,0,.63-.04,1.66-.12,1.13-.1,1.98-.19,2.54-.26.41-.07.81-.17,1.2-.31.06-.02.12-.02.19-.02.23,0,.39.18.48.52.08.32.02.55-.17.7-.08.04-.16.06-.25.07-.08.01-.17.02-.25.02-.03,0-.17,0-.42-.02-.35-.03-.7-.05-1.05-.06-.27-.01-.55-.02-.82-.01M46.52,47.99h-.08c-.24.02-.57.04-.98.08-2.17.23-3.72.38-4.65.46-.47.04-.84.06-1.09.06-.34,0-.54-.08-.6-.22-.06-.17.08-.34.42-.5.1-.04.27-.08.51-.13.13-.02.52-.06,1.18-.13,2.64-.22,4.97-.39,6.98-.52l.34-.03.42-.06c.16,0,.27.01.32.06.08.05.13.14.14.26-.04.37-.19.61-.45.74-.13.04-.27.06-.41.05h-.2c-.66-.09-1.03-.13-1.11-.13-.25-.02-.49-.02-.74-.01"/>
    <path class="cls-2" d="M40.91,52.81h-.03c-.78-.14-1.33-.27-1.65-.4-.31-.13-.25-.21.17-.24.36-.02,1.03-.02,2.02,0,.4,0,.8.01,1.2.02l2.28.05c.06,0,.97.01,2.71.02.28,0,.49.02.64.04.41.06.56.22.45.48-.16.28-.47.44-.96.45-.14,0-.31,0-.5,0l-.47-.03c-.67-.03-1.33-.07-2-.1-.44-.02-.89-.05-1.33-.08-1.14-.07-1.99-.15-2.55-.23M46.53,56.85h-.1c-.62,0-1.96-.05-4.02-.12-.33,0-.66-.02-.98-.02-.5,0-.87.01-1.13.03-.15,0-.59.04-1.33.1l-.56.04c-.11,0-.21,0-.32-.03-.24-.1-.29-.25-.14-.46.13-.15.39-.27.8-.35.52-.1,1.86-.14,4.01-.11,1.61.02,2.98.06,4.1.12.29.01.59.04.88.08.17.02.39.06.65.11.12.03.24.06.34.11.11.05.2.12.28.21.09.15.05.24-.1.27-.05.02-.11.02-.16.02-.09,0-.18,0-.27,0-.17,0-.32,0-.45.01-.07,0-.56,0-1.47,0M38.26,60.93h0c-.14-.08-.12-.16.07-.24.34-.12.69-.19,1.04-.21.13-.01.34-.02.65-.01.04,0,.17,0,.39.02.65.05,1.13.08,1.44.09.4.02.79.02,1.19,0l.56-.03.84-.07,3.02-.3c.36-.03.72-.06,1.07-.09.32-.02.58-.03.78-.02.1,0,.19.02.26.06.12.1.07.21-.16.33-.21.12-.55.23-1.03.33-1.39.22-3.07.41-5.06.55-1.09.08-1.98.08-2.68.02-1-.09-1.79-.24-2.38-.43"/>
  </g>
</svg>