<?xml version="1.0" encoding="UTF-8"?>
<svg id="Lager_1" data-name="Lager 1" xmlns="http://www.w3.org/2000/svg" viewBox="0 0 96 96">
  <defs>
    <style>
      .cls-1 {
        fill: #fff;
      }

      .cls-2 {
        fill: #00a5dd;
      }
    </style>
  </defs>
  <ellipse class="cls-2" cx="48" cy="48" rx="32.93" ry="48.53" transform="translate(-8.73 85.28) rotate(-78.32)"/>
  <g>
    <path class="cls-1" d="M66.37,28.63c-2.22.2-3.92,2.28-3.8,4.58h-29.13c.1-5.85-8.15-6.18-8.43-.38v28.36c0,2.32,1.89,4.22,4.22,4.22h37.56c2.32,0,4.22-1.89,4.22-4.22v-28.36c.05-2.42-2.22-4.48-4.63-4.2ZM62.56,34.74v7.66h-10.57l2.87-7.66h7.7ZM28.09,61.19c-.09.94.17,1.88.73,2.64-1.31-.2-2.27-1.33-2.28-2.65v-28.36c.14-3.62,5.3-3.51,5.37.15v24.76c-1.97.06-3.63,1.56-3.81,3.46ZM31.9,63.86c-1.32.03-2.45-1.21-2.29-2.53.11-1.16,1.17-2.07,2.42-2.07.77,0,1.4-.63,1.4-1.4v-23.13h16.51l-10.92,29.13h-7.12ZM40.67,63.86l10.92-29.13h1.64l-3.06,8.16c-.2.48.2,1.05.72,1.04h11.68v1.53h-12.83c-.32,0-.61.2-.72.5l-6.71,17.9h-1.64ZM65.8,63.11c-.44.48-1.05.75-1.7.75h-20.15l6.32-16.86h12.3v10.86c0,.77.63,1.4,1.4,1.4,2.04-.04,3.21,2.37,1.83,3.85ZM69.46,61.18c0,1.32-.97,2.45-2.28,2.65,1.86-2.44,0-6.05-3.09-6.1v-24.76c-.04-2.38,2.77-3.74,4.49-2.13.56.51.88,1.23.88,1.99v28.36Z"/>
    <path class="cls-1" d="M40.34,36.27c-2.96,0-5.37,2.41-5.37,5.37,0,4.19,4.74,7.4,4.94,7.54.26.17.59.17.85,0,.2-.13,4.94-3.34,4.94-7.54,0-2.96-2.41-5.37-5.37-5.37ZM40.34,47.59c-1.08-.83-3.83-3.22-3.83-5.95,0-2.11,1.72-3.83,3.83-3.83s3.83,1.72,3.83,3.83c0,2.72-2.75,5.12-3.83,5.95Z"/>
    <path class="cls-1" d="M38.04,41.64c.08,3.03,4.52,3.03,4.6,0-.08-3.03-4.52-3.03-4.6,0ZM39.57,41.64c.02-1.01,1.52-1.01,1.53,0-.02,1.01-1.52,1.01-1.53,0ZM55.66,49.3c-2.96,0-5.37,2.41-5.37,5.37,0,4.19,4.74,7.4,4.94,7.54.26.17.59.17.85,0,.2-.13,4.94-3.34,4.94-7.54,0-2.96-2.41-5.37-5.37-5.37ZM55.66,60.62c-1.08-.83-3.83-3.22-3.83-5.95,0-2.11,1.72-3.83,3.83-3.83s3.83,1.72,3.83,3.83c0,2.72-2.75,5.12-3.83,5.95Z"/>
    <path class="cls-1" d="M55.66,52.37c-3.03.08-3.03,4.52,0,4.6,3.03-.08,3.03-4.52,0-4.6ZM55.66,55.43c-1.01-.02-1.01-1.52,0-1.53,1.01.02,1.01,1.52,0,1.53Z"/>
  </g>
</svg>