<?xml version="1.0" encoding="UTF-8"?>
<svg id="Lager_1" data-name="Lager 1" xmlns="http://www.w3.org/2000/svg" viewBox="0 0 96 96">
  <defs>
    <style>
      .cls-1 {
        fill: #fff;
      }

      .cls-2 {
        fill: #00a5dd;
      }
    </style>
  </defs>
  <ellipse class="cls-2" cx="48" cy="48" rx="32.93" ry="48.53" transform="translate(-8.73 85.28) rotate(-78.32)"/>
  <g>
    <path class="cls-1" d="M47.84,62.84c-.08.08-1.01-.62-2.17-2.17-.54-.78-1.24-1.63-1.94-2.64-.78-1.01-1.55-2.02-2.4-3.1-.31-.39-1.24-1.63-2.64-3.41-.7-.93-1.55-1.86-2.56-3.02s-2.09-2.56-2.87-4.27-1.32-3.72-1.55-5.89c-.16-2.17,0-4.5.93-6.75.62-1.09,1.32-2.17,2.25-3.02s2.02-1.55,3.18-2.17c2.33-1.16,4.89-1.94,7.6-2.17,2.79-.23,5.66.08,8.3,1.09,2.48.93,4.73,2.56,6.44,4.58,1.63,2.02,2.79,4.27,3.26,6.59.23,1.16.31,2.33.23,3.41-.08,1.09-.31,2.17-.54,3.18-.54,2.02-1.47,3.65-2.33,5.12-.85,1.4-1.63,2.64-2.4,3.72-1.4,2.09-2.48,3.41-2.79,3.8-1.78,2.25-3.72,4.03-5.35,5.04-1.55,1.01-2.71,1.4-2.79,1.24s.93-.7,2.4-1.78c1.4-1.09,3.26-2.95,4.96-5.12.31-.39,1.24-1.55,2.56-3.41.62-.93,1.4-2.02,2.17-3.33.78-1.24,1.63-2.71,2.25-4.42.62-1.71,1.09-3.57.93-5.66-.08-2.02-.78-4.19-1.94-6.13s-2.87-3.72-4.96-5.04c-2.09-1.24-4.58-2.02-7.21-2.25-2.71-.23-5.43.16-7.91,1.01-2.48.85-4.81,2.17-6.36,4.03s-2.02,4.27-2.09,6.51c0,2.25.39,4.34,1.09,6.2,1.32,3.72,4.03,5.89,5.58,7.99,1.55,2.02,2.56,3.26,2.87,3.72.85,1.16,1.63,2.17,2.4,3.18.7,1.01,1.24,1.94,1.78,2.71,1.01,1.71,1.78,2.56,1.63,2.64Z"/>
    <path class="cls-1" d="M48.78,47.33c0-.16.62,0,1.55-.39.85-.31,1.94-1.16,2.95-2.25.16-.23.78-.78,1.47-1.78s1.55-2.4,1.78-4.34c.16-.93.08-2.02-.23-3.02-.31-1.01-.85-2.09-1.71-2.95-1.78-1.63-4.58-2.48-7.37-2.25-2.95.23-5.58,1.94-6.9,4.19-.7,1.09-1.01,2.33-1.09,3.57,0,1.16.23,2.33.62,3.26.85,1.94,2.17,3.18,3.18,4.03,1.09.78,1.86,1.16,2.09,1.24,1.32.62,2.64.85,3.65.85.93.08,1.55-.08,1.63,0s-.54.47-1.55.62c-1.09.16-2.56,0-4.03-.7-.23-.16-1.09-.47-2.09-1.24-1.01-.78-2.33-2.02-3.33-3.88-.47-.93-.85-2.02-.93-3.26s.08-2.56.62-3.8c1.01-2.48,3.33-4.65,6.28-5.43,3.02-.85,6.36-.31,8.76,1.32,1.24.78,2.09,1.94,2.64,3.18s.7,2.48.7,3.65c-.16,2.33-1.09,4.11-1.86,5.27s-1.4,1.86-1.63,2.09c-1.01,1.16-2.33,2.09-3.41,2.25-1.16.31-1.86-.16-1.78-.23ZM45.52,67.57c.31.08.23.93.23,1.78,0,.08,0,.31.08.62s.31.78.78.93,1.24.16,2.02,0,1.55-.54,1.94-1.24c.39-.78.39-1.71-.08-2.4-.39-.7-1.09-1.09-1.71-1.24-.62-.16-1.16,0-1.55.08-.39.16-.62.31-.62.31-.78.47-1.24,1.09-1.47,1.01-.08-.08-.16-.31,0-.7s.47-.78.93-1.09c.16-.08,1.09-.78,2.64-.54.78.08,1.63.54,2.17,1.32.62.78.93,1.86.54,2.95-.16.54-.47,1.09-.85,1.47s-.93.62-1.4.78-.93.23-1.4.23-.85.08-1.32-.08c-.47-.08-.85-.39-1.09-.62-.23-.31-.39-.54-.47-.85-.16-.54-.16-.85-.23-1.01,0-.62.16-1.09.31-1.4.23-.16.39-.31.54-.31ZM71.73,34.22c.08.23-.08.54-.39.62-.08,0-1.01.23-1.94.7-1.01.47-1.86,1.01-2.02,1.09-.23.16-.54.08-.7-.16-.16-.23,0-.54.23-.7.08-.08.93-.47,1.94-.93,1.09-.47,2.02-.85,2.17-.93.31-.08.62.08.7.31ZM72.74,39.65c0,.23-.31.47-.62.39-.08,0-1.01-.23-2.09-.39-1.16-.16-2.17-.23-2.33-.23-.31-.08-.47-.31-.47-.54s.31-.47.62-.39c.08,0,1.01.23,2.09.39,1.16.16,2.17.23,2.33.23.23.08.47.31.47.54ZM72.74,45.47c-.16.23-.47.23-.78.08-.16-.08-1.09-.7-2.25-1.32-1.24-.7-2.4-1.24-2.56-1.32-.31-.16-.47-.47-.39-.7.16-.23.47-.31.78-.08.16.08,1.09.7,2.33,1.32,1.24.7,2.4,1.24,2.56,1.32.31.16.47.47.31.7ZM24.27,45.47c-.08-.23.08-.54.39-.62.08,0,1.01-.23,1.94-.7,1.01-.47,1.86-1.01,2.02-1.09.23-.16.54-.08.7.16.16.23,0,.54-.23.7-.08.08-.93.47-1.94.93-1.09.47-2.09.85-2.17.85-.31.16-.62,0-.7-.23ZM23.26,40.04c0-.23.31-.47.62-.39.08,0,1.01.23,2.09.39,1.16.16,2.17.23,2.33.23.31.08.47.31.47.54s-.31.47-.62.39c-.08,0-1.01-.23-2.09-.39-1.16-.16-2.17-.23-2.33-.23-.23-.08-.47-.31-.47-.54ZM23.26,34.22c.16-.23.47-.23.78-.08.08.08,1.09.7,2.25,1.32,1.24.7,2.4,1.24,2.56,1.32.31.16.47.47.39.7-.16.23-.47.31-.78.08-.16-.08-1.09-.7-2.33-1.32-1.24-.7-2.4-1.24-2.56-1.32-.31-.16-.47-.47-.31-.7Z"/>
  </g>
</svg>