<?xml version="1.0" encoding="UTF-8"?>
<svg id="Lager_1" data-name="Lager 1" xmlns="http://www.w3.org/2000/svg" viewBox="0 0 96 96">
  <defs>
    <style>
      .cls-1 {
        fill: #fff;
      }

      .cls-2 {
        fill: #00a5dd;
      }
    </style>
  </defs>
  <ellipse class="cls-2" cx="48" cy="48" rx="32.93" ry="48.53" transform="translate(-8.73 85.28) rotate(-78.32)"/>
  <g>
    <path class="cls-1" d="M46.87,54.25l7.14,2.4s.03,0,.05.01c.1.02.18.03.28.03.33,0,.65-.13.9-.37.31-.31.44-.74.35-1.17,0-.01,0-.03-.01-.05l-2.3-7.17c-.02-.06-.05-.12-.1-.17l-19.9-20.17c-.43-.44-1.01-.68-1.63-.69-.63,0-1.2.23-1.64.67l-3.18,3.14c-.91.89-.92,2.36-.03,3.27l19.9,20.18c.05.05.12.08.18.1ZM29.81,35.81l5.25-5.18,1.24,1.25-5.25,5.18-1.24-1.25ZM36.9,32.5l15.3,15.5-5.25,5.18-15.29-15.5,5.25-5.18ZM53.77,52.27l-2.57,2.53-3.49-1.17,4.93-4.87,1.13,3.5Z"/>
    <path class="cls-1" d="M63.28,30.9c-1.74-.03-3.67.05-4.9,1.36-1.1,1.18-1.16,2.88-1.14,4.52.06,4.06.07,7.72.07,11.28,0,3.01,0,6.12.05,9.45,0,.35-.14.69-.39.94-.26.24-.6.37-.96.35-5.96-.33-23.16-.35-24.18-.06-1.42.39-1.25,2.79-1.14,4.53.02.27.03.5.04.69.03.98.09,1.96.17,2.92.1,1.14,1,2.03,2.14,2.12,1.02.07,2.17.1,3.23.1.63,0,1.22,0,1.72-.01,8.14-.14,16.28-.28,24.42-.42h.42c1.37-.03,2.78-.14,3.73-1.11.92-.94,1.02-2.31,1.04-3.64.05-2.94.1-5.87.14-8.81,0-.03.02-.06.02-.1,0-.04,0-.08-.02-.12.05-3.07.25-15.38.3-18.33v-1.02h.01c.02-1.22-.03-2.38-.74-3.29-.95-1.18-2.58-1.31-4.04-1.34ZM65.95,66.94c-.72.74-1.94.82-3.13.84h-.42c-8.14.14-16.28.29-24.42.43-1.33.02-3.29.04-4.86-.08-.72-.05-1.29-.61-1.35-1.33-.08-.95-.14-1.91-.16-2.88,0-.2-.02-.45-.04-.72-.07-1.12-.23-3.44.51-3.65.72-.2,2.32-.23,3.72-.23h.86v2.44c0,.24.19.43.43.43s.43-.19.43-.43v-2.44c.23,0,.44,0,.61,0,.87-.01,1.75-.02,2.62-.03v4.16c0,.24.19.43.43.43s.43-.19.43-.43v-4.15c.95,0,1.91,0,2.87,0v3.09c0,.24.19.43.43.43s.43-.19.43-.43v-3.08c1.16.01,2.33.03,3.49.06v5.24c0,.24.19.43.43.43s.43-.19.43-.43v-5.22c1.42.04,2.82.1,4.23.16l-.12,2.65c-.01.24.17.44.41.45h.02c.23,0,.42-.18.43-.41l.12-2.65c.4.02.8.03,1.2.05.59.03,1.17-.18,1.6-.59.43-.41.67-.98.66-1.57-.04-3.33-.04-6.44-.05-9.44,0-3.55,0-7.23-.07-11.29-.03-1.46.02-2.97.91-3.92.98-1.05,2.64-1.11,4.25-1.09,1.27.03,2.67.12,3.38,1.02.54.69.57,1.69.56,2.74v1.02c-.02.24-.02.49-.03.73h-2.25c-.24,0-.43.19-.43.43s.19.43.43.43h2.24c-.02,1.08-.03,2.15-.05,3.23h-3.88c-.24,0-.43.19-.43.43s.19.43.43.43h3.87c-.01.96-.03,1.91-.05,2.87h-2.75c-.24,0-.43.19-.43.43s.2.46.44.46h2.74c-.02,1.16-.04,2.33-.05,3.49h-4.9c-.24,0-.43.19-.43.43s.19.43.43.43h4.89c-.02,1.41-.05,2.82-.07,4.22l-2.4-.11c-.23,0-.44.17-.45.41s.17.44.41.45l2.42.11c-.05,2.83-.1,5.67-.14,8.5-.03,1.21-.1,2.35-.8,3.06ZM69.45,42.37c-.23-.02-.44.18-.44.42l-.14,10.35c0,.24.18.44.42.44h0c.24,0,.43-.19.43-.42l.14-10.35c0-.24-.18-.44-.42-.44ZM69.29,54.4c-.24,0-.43.19-.43.43v.91c0,.24.19.43.43.43s.43-.19.43-.43v-.91c0-.24-.19-.43-.43-.43ZM32.88,42.49c-.16.18-.16.45.02.61l5.73,5.38c.08.07.19.12.29.12.12,0,.23-.05.31-.14.16-.17.16-.44-.02-.61l-5.73-5.38c-.18-.16-.44-.15-.61.02Z"/>
    <path class="cls-1" d="M39.78,49.02c-.16.18-.14.45.04.61l.41.36c.08.07.18.11.29.11.12,0,.24-.05.33-.15.16-.18.14-.45-.04-.61l-.41-.36c-.18-.16-.46-.14-.61.04Z"/>
  </g>
</svg>