<?xml version="1.0" encoding="UTF-8"?>
<svg id="Lager_1" data-name="Lager 1" xmlns="http://www.w3.org/2000/svg" viewBox="0 0 96 96">
  <defs>
    <style>
      .cls-1 {
        fill: #fff;
      }

      .cls-2 {
        fill: #00a5dd;
      }
    </style>
  </defs>
  <ellipse class="cls-2" cx="48" cy="48" rx="32.93" ry="48.53" transform="translate(-8.73 85.28) rotate(-78.32)"/>
  <g>
    <path class="cls-1" d="M69.98,63.36C29.73,23.12,32.01,25,31.22,25.32s-.51-1.96-.51,38.62c0,.45.37.82.82.82h37.86c.45,0,.83-.36.83-.82,0-.22-.09-.43-.24-.59ZM32.36,63.12V28.07l3.37,3.37-1.07,1.06c-.32.32-.32.85,0,1.17s.85.32,1.17,0l1.06-1.07,2.13,2.13-1.89,1.88c-.32.32-.32.85,0,1.17s.85.32,1.17,0l1.88-1.89,2.13,2.13-1.07,1.06c-.32.32-.32.85,0,1.17s.85.32,1.17,0l1.06-1.07,2.13,2.13-1.89,1.88c-.32.32-.32.85,0,1.17.32.32.85.32,1.17,0l1.88-1.89,2.13,2.13-1.07,1.06c-.32.32-.32.85,0,1.17s.85.32,1.17,0l1.06-1.07,2.13,2.13-1.89,1.88c-.32.32-.32.85,0,1.17s.85.32,1.17,0l1.88-1.89,2.13,2.13-1.07,1.06c-.32.32-.32.85,0,1.17.32.32.85.32,1.17,0l1.06-1.07,2.13,2.13-1.89,1.88c-.32.32-.32.85,0,1.17.32.32.85.32,1.17,0l1.88-1.89,2.13,2.13-1.07,1.06c-.32.32-.32.85,0,1.17s.85.32,1.17,0l1.06-1.07,4.19,4.19h-35.05Z"/>
    <path class="cls-1" d="M37.88,41.14c-.32-.32-.84-.32-1.16,0-.16.16-.24.37-.24.59v16.46c0,.45.37.82.82.82,17.7,0,16.92.21,17.22-.51s1.24.51-16.63-17.36ZM38.12,57.36v-13.65l13.65,13.65h-13.65ZM63.3,52.34c.18.07,5.19.9,5.27.9.45,0,.83-.36.83-.81,0-.05,0-.1-.01-.14-.92-5.51-.82-4.94-.86-5.07-.13-.37,1.02.9-19.53-19.66-1.48-1.44-3.84-1.41-5.28.07-1.41,1.45-1.41,3.76,0,5.22,20.68,20.68,19.36,19.41,19.59,19.51ZM63.63,50.44l-14.48-14.48,2.95-2.95,14.48,14.48-2.95,2.95ZM65.34,51.04l1.85-1.85.37,2.22-2.22-.37ZM50.95,31.84l-2.95,2.95-1.31-1.31,2.95-2.95,1.31,1.31ZM44.87,28.72c.81-.81,2.13-.81,2.94,0,0,0,0,0,0,0l.66.65-2.95,2.95-.65-.66c-.81-.81-.81-2.13,0-2.94,0,0,0,0,0,0Z"/>
  </g>
</svg>