<?xml version="1.0" encoding="UTF-8"?>
<svg id="Lager_1" data-name="Lager 1" xmlns="http://www.w3.org/2000/svg" viewBox="0 0 96 96">
  <defs>
    <style>
      .cls-1 {
        fill: #fff;
      }

      .cls-2 {
        fill: #00a5dd;
      }
    </style>
  </defs>
  <ellipse class="cls-2" cx="48" cy="48" rx="32.93" ry="48.53" transform="translate(-8.73 85.28) rotate(-78.32)"/>
  <g id="Pipe_Wrench" data-name="Pipe Wrench">
    <path class="cls-1" d="M45.91,43.19c-.17.14-.39.33-.62.56-.11.1-.11.27-.02.38l3.41,3.97c.25.29.68.32.97.07.29-.25.32-.68.07-.97l-3.43-3.99c-.1-.12-.27-.13-.39-.03Z"/>
    <path class="cls-1" d="M71.57,58.5c-.27.09-.6.23-.96.39-3.07,1.33-3.18.79-3.77-.5-.53-1.17-1.07-2.37-1.48-3.6-.33-.99-.82-1.94-1.05-2.94-.61-2.65.72-2.62,3.31-3.67.34-.14.14-.65-.21-.52-1.67.67-3.58,1.01-3.79,2.71-6.05,1.56-8.12.27-10.95-.12-1.17-.15-1.97.4-4.2,1.09-.91-1.02-1.76-1.93-2.31-2.51-.17-.18-.03-.38.08-.58l.97,1.12c1.21,1.41,3.47,1.16,4.35-.55.17-.33-.33-.58-.5-.25-.73,1.42-2.56,1.46-3.43.44-.07-.08-4.64-5.39-4.35-5.05.65-.96,1.93-2.13,3.08-2.76,3.08,3.58,4.43,5.13,4.52,5.27.2.3.67,0,.46-.31-.14-.21.16.16-3.63-4.24.36-.57.47-1.02.31-1.32,0-.04-.03-.08-.05-.11,0,0,0,0,0-.01-2.63-2.93-2.45-3.12-3.19-3.01.04-.11.07-.23.06-.36-.27-3.36-2.1-5.26-5.49-5.45,0,0-.01,0-.02,0l-2.15-2.38c-.25-.27-.66.1-.41.37l1.98,2.19c-1.04.63-2.09,1.37-3.14,2.2l-4.82-5.4c-.34-.36-.96-.19-1.07.31l-.33,1.68c-.02.09-.04.04-2.03.08-.34,0-.62.28-.62.63-.03,1.53.06,1.7-.06,1.7h-1.89l-.07-.08c.34-2.74,1.47-5.11,3.37-7.04,1.53-1.56,4.01-1.45,5.41.12l.96,1.06c.25.27.66-.1.41-.37l-.96-1.06c-1.6-1.79-4.44-1.95-6.22-.14-1.85,1.89-3,4.18-3.43,6.8-.09.15-.16.34-.2.68-.03.21.24,1.33.45,1.33h2.21c.15,0,.59-.67.59-1.36v-.97l1.75-.02c.1,0,.78-.62.89-1.24l.33-1.67c.01-.06.09-.07.11-.04l3.82,4.28c-.27-.05.16-.02-1.72.07-.29.02-.53.23-.58.52-.24,1.3-.18,1.38-.28,1.38h-1.41c-.31,0-.58.23-.62.54-.17,1.24-.12,1.26-.2,1.28l-1.31.23c-.47-.19-1.01.48-.49,1.33l1.66,1.9c-.05.39.05,1.13.16,1.3,2.88,4.19,6.87,5.48,7.17,5.86,1.49,1.92,4,4.68,6.55,7.43-.46.5-1.4,1.17-1.2,2.18.11.51.54.96,1.11,1.13.36.1.62.09.8.07.19,1.5,1.1,2.44,2.47,2.63.12,1.26.99,2.25,2.29,2.47.17,1.19,1.06,2.16,2.48,2.26.17.74.62,1.34,1.3,1.67.49.23,1,.27,1.54.24.74.98,1.43,1.96,2.07,2.91.45.66,1.16,1.1,2.05,1.1,2.83-.06,4.7-1.66,5.13-4.4.15-.96-.27-1.92-1.06-2.45-2.14-1.45-1.7-1.12-2.37-1.61,2-1.77,4.37-3.13,6.92-3.94.93,1.8,3.62.13,5.06-.35.36-.12.17-.65-.18-.53ZM43.72,45.31l.02.02c-.28.2-.46.4-.7.14.18,0,.4-.05.68-.17ZM47.09,40.3c-1.48.34-4.11,2.61-4.66,4.05-2.18-2.51-2-2.24-1.99-2.36.08-1.13,3.32-4,4.55-4,.15,0-.07-.17,2.11,2.3ZM43.77,34.92c-1.57.43-3.61,1.97-4.73,2.9-.28.24.07.66.36.43,1.86-1.54,3.46-2.52,4.56-2.81.16.51.29,1.07.34,1.71.01.12-.07.24-.19.29-1.7.73-3.34,2.16-4.6,4.02-.22.32-.19.74.08,1.04.68.75,2.36,2.59,3.07,3.38.29.31.74.36,1.08.13.12-.08.25-.17.37-.26l1.77,2.05c-.07.12-.13.25-.21.38-.2.33-.16.75.1,1.03.51.54,1.28,1.36,2.12,2.3-1.96.53-2.17.1-3.04,1.6-.25.42-.37.63-.99,1.28l-1.71-1.93c-4.85-5.5-4.92-5.99-5.31-6.19-1.15-.55-2.19-1.16-3.13-1.85.58-1.05,1.85-2.57,3.47-4.16.26-.26-.12-.66-.39-.4-1.62,1.58-2.9,3.13-3.53,4.22-1.31-1.01-2.42-2.16-3.28-3.43-.08-.11-.06-.26.02-.37,2.65-3.03,5.71-5.98,9.16-8.05.06-.03.12-.04.19-.05,2.25.13,3.71,1.03,4.44,2.72ZM29.51,37.63c.27-.05.47-.26.51-.54.17-1.22.11-1.28.21-1.28h1.41c.31,0,.56-.22.61-.52.24-1.31.19-1.37.28-1.38l1.6-.07.73.82c-1.62,1.36-3.25,2.97-4.93,4.86l-1.38-1.58s-.03-.1-.04-.14l1-.17ZM44.42,58.43c.93-.22,1.72-.68,2.37-1.34,1.58-.3.86-.45,1.95-1.15.74.04,1.55,0,2.31-.08.82.82-.28,2.22-1.01,3.13-.61.77-1.31,1.49-2.24,1.58-.7.07-1.44.12-2.07-.18-.81-.37-1.21-1.09-1.31-1.97ZM57.23,65.55c1.31-.84,3.02.11,3.02,1.65,0,1.08-.88,1.95-1.96,1.95-1.35,0-2.3-1.35-1.83-2.62.27-.3.57-.69.77-.98ZM49.22,63.67c.83.02,1.49-.05,2.12-.41.32-.19.04-.67-.28-.48-.29.17-.57.26-.86.29-.65.06-1.48.11-2.08-.18-.68-.32-1.12-.95-1.22-1.7,1.5.01,2.32-.26,3.57-1.84.3-.38.59-.74.86-1.18.34-.21,1.32-.69,2.04-.08.9.76.04,2.05-.67,3-.22.3.23.62.45.34.22-.29.45-.61.64-.94.56-.21,1.15-.19,1.56.26.46.49.19,1.23-.15,1.81h0c-.71,1.05-1.7,2.6-2.95,2.73-.73.07-1.38.11-1.94-.16-.59-.28-.97-.81-1.11-1.45ZM52.66,67.03c-.49-.23-.82-.65-.97-1.17,1.06-.04,1.81-.1,3.13-1.79.28-.36.56-.72.83-1.18,1.14-.55,2,.09,1.82.97-.15.78-1.71,3.19-3.04,3.31-.58.07-1.24.1-1.77-.15ZM52.73,55.61c.64-.13,1.21-.3,1.63-.47.14-.06.21-.22.15-.37s-.22-.21-.37-.15c-1.66.7-5.12,1-6.51.61-.14-.04-.28.03-.33.16-1.12,2.58-4.48,3.3-4.8,1.81-.19-.99,1.66-1.85,2.81-3.8.3-.52.54-.92,1.12-1,2.78-.39,4.88-1.76,6.16-1.59,2.78.37,4.94,1.67,11.01.14.08,1.48.82,2.82,1.23,4.02.44,1.33,1.04,2.62,1.62,3.91-1.41.46-2.77,1.07-4.04,1.83.78-1.01,1.3-2.29,1.3-4.67,0-.37-.56-.37-.56,0,0,3.6-1.05,4.45-3.83,6.94-1.43-1.14-1.46-1.48-6.59-7.37Z"/>
    <circle class="cls-1" cx="66.96" cy="51.42" r="1.29"/>
  </g>
</svg>