<?xml version="1.0" encoding="UTF-8"?>
<svg id="Lager_1" data-name="Lager 1" xmlns="http://www.w3.org/2000/svg" viewBox="0 0 96 96">
  <defs>
    <style>
      .cls-1 {
        fill: #fff;
      }

      .cls-2 {
        fill: #00a5dd;
      }
    </style>
  </defs>
  <ellipse class="cls-2" cx="48" cy="48" rx="32.93" ry="48.53" transform="translate(-8.73 85.28) rotate(-78.32)"/>
  <g>
    <path class="cls-1" d="M37.89,22.83c-1.37.14-3.51.72-5.87,2.61-.23.19-.43.42-.59.68-.05.08-.11.18-.19.29-.7,1.09-2.36,3.62-2.69,5.56-.17,1.06.19,2.14.96,2.9l.49.49c.47.47,1.23.47,1.69,0l5.39-5.39,1.56,1.56-5.84,5.91c-.17.18-.27.41-.27.66h0c0,.24.09.48.26.65l1.58,1.62.27.27c.06.06.12.11.2.15,11.57,10.48,20.51,19.31,27.32,27l.16.17c1.65,1.64,4.31,1.63,5.95-.01.78-.79,1.22-1.85,1.22-2.97v-.14c-.04-1.17-.57-2.27-1.45-3.04-5.4-4.67-11.77-11.36-13.08-12.75l.18-.98,3.27,3.28c1.37,1.3,3.54,1.25,4.84-.12,1.26-1.32,1.26-3.39,0-4.72l-6.8-6.8c.05-.15.07-.3.08-.45,0-.4-.16-.79-.45-1.07l-2.96-2.96c-.11-.1-.23-.19-.36-.25.16-.71-.05-1.46-.57-1.98l-3.2-3.2c-.66-.66-1.66-.82-2.49-.39-.02,0-.03.01-.05.03l-.17.11-5.73-5.73c-.69-.71-1.68-1.07-2.67-.97ZM51.19,35.01l-4.53,4.54s-.03.03-.04.05l-.17.17c-.59.59-.59,1.55,0,2.14l.13.11s.05.07.09.11l2.49,2.49s.07.06.11.09l.15.15c.59.59,1.55.59,2.14,0l2.34-2.34.69.68-1.09,5.92c-.04.22.03.45.18.62.08.1,7.36,7.86,13.44,13.14,1.13,1.04,1.19,2.8.15,3.93s-2.8,1.19-3.93.15l-.12-.12c-6.81-7.69-15.75-16.52-27.3-26.98l5.84-5.83c.06-.07.13-.12.2-.16.02,0,.04,0,.05-.03l5.18-3.18c.28-.13.6-.07.81.14l3.2,3.2c.27.29.26.73-.01,1.01ZM41.54,32.44l-3.6-3.62c-.47-.47-1.23-.47-1.69,0l-5.39,5.41-.33-.33c-.45-.43-.66-1.05-.56-1.67.28-1.67,1.88-4.1,2.48-5.02l.2-.31c.08-.13.18-.24.29-.33,2.08-1.68,3.93-2.17,5.11-2.3.56-.06,1.11.13,1.5.54l5.49,5.49-3.49,2.15ZM62.25,47.51c.8.76.83,2.02.07,2.82-.76.8-2.02.83-2.82.07-.02-.02-.05-.05-.07-.07l-3.98-3.98.55-3s0-.09,0-.13c0-.37-.15-.72-.41-.98l-.72-.72.69-.69,6.7,6.68ZM34.15,38.11l5.41-5.43.75.76-5.43,5.43-.72-.76ZM52.12,36.23l2.96,2.96s.03.09,0,.12l-2.03,2.03c-.06.04-.12.09-.17.14l-2.14,2.15c-.14.14-.36.15-.53.04l-2.58-2.58c-.11-.15-.1-.35.02-.5l4.35-4.35s.07-.05.11-.03c0,0,.01,0,.02.01Z"/>
    <path class="cls-1" d="M63.78,66.01c.72.72,1.88.72,2.6,0h0c.72-.72.72-1.88,0-2.6-.72-.72-1.88-.72-2.6,0-.72.72-.72,1.88,0,2.6,0,0,0,0,0,0ZM65.37,65.01c-.16.16-.42.16-.58,0-.16-.16-.16-.42,0-.59.16-.16.42-.16.58,0,.16.16.16.42,0,.58h0Z"/>
  </g>
</svg>