<?xml version="1.0" encoding="UTF-8"?>
<svg id="Lager_1" data-name="Lager 1" xmlns="http://www.w3.org/2000/svg" viewBox="0 0 96 96">
  <defs>
    <style>
      .cls-1 {
        fill: #fff;
      }

      .cls-2 {
        fill: #00a5dd;
      }
    </style>
  </defs>
  <ellipse class="cls-2" cx="48" cy="48" rx="32.93" ry="48.53" transform="translate(-8.73 85.28) rotate(-78.32)"/>
  <g>
    <path class="cls-1" d="M48,62.92c-.89,0-1.6.71-1.6,1.6s.71,1.6,1.6,1.6,1.6-.71,1.6-1.6-.71-1.6-1.6-1.6ZM48,64.88c-.24,0-.42-.18-.42-.42s.18-.42.42-.42.42.18.42.42-.18.42-.42.42Z"/>
    <path class="cls-1" d="M34.63,32.43v31.14c0,2.26,1.84,4.04,4.04,4.04h18.66c2.26,0,4.04-1.84,4.04-4.04v-31.14c0-2.26-1.84-4.04-4.04-4.04h-18.66c-2.2,0-4.04,1.84-4.04,4.04ZM60.18,32.43v31.14c0,1.55-1.31,2.85-2.85,2.85h-18.66c-1.55,0-2.85-1.31-2.85-2.85v-31.14c0-1.55,1.31-2.85,2.85-2.85h18.66c1.55,0,2.85,1.31,2.85,2.85Z"/>
    <path class="cls-1" d="M37.6,34.04v27.93c0,.36.24.59.59.59h19.61c.36,0,.59-.24.59-.59v-27.93c0-.36-.24-.59-.59-.59h-19.61c-.36,0-.59.24-.59.59ZM38.79,34.63h18.42v26.74h-18.42v-26.74ZM45.15,32.13h5.7c.36,0,.59-.24.59-.59s-.24-.59-.59-.59h-5.7c-.36,0-.59.24-.59.59s.3.59.59.59Z"/>
    <path class="cls-1" d="M54.24,46.22l-1.31-.3.77-1.13c.18-.24.12-.53-.06-.77l-1.66-1.66c-.18-.18-.53-.24-.77-.06l-1.13.77-.3-1.31c-.06-.3-.3-.48-.59-.48h-2.38c-.3,0-.53.18-.59.48l-.3,1.31-1.13-.71c-.24-.18-.53-.12-.77.06l-1.66,1.66c-.18.18-.24.53-.06.77l.77,1.13-1.31.24c-.3.06-.48.3-.48.59v2.38c0,.3.18.53.48.59l1.31.3-.77,1.13c-.18.24-.12.53.06.77l1.66,1.66c.18.18.53.24.77.06l1.13-.77.3,1.31c.06.3.3.48.59.48h2.38c.3,0,.53-.18.59-.48l.3-1.31,1.13.77c.24.18.53.12.77-.06l1.66-1.66c.18-.18.24-.53.06-.77l-.77-1.13,1.31-.3c.3-.06.48-.3.48-.59v-2.38c0-.3-.18-.53-.48-.59ZM53.53,48.71l-1.72.36c-.18.06-.36.18-.42.36-.06.18-.06.42.06.53l.95,1.43-1.01,1.01-1.43-.95c-.18-.12-.36-.12-.53-.06-.18.06-.3.24-.36.42l-.36,1.72h-1.43l-.36-1.72c-.06-.18-.18-.36-.36-.42s-.42-.06-.53.06l-1.43.95-1.01-1.01.95-1.43c.12-.18.12-.36.06-.53-.06-.18-.24-.3-.42-.36l-1.72-.36v-1.43l1.72-.36c.18-.06.36-.18.42-.36.06-.18.06-.42-.06-.53l-.95-1.43,1.01-1.01,1.43.95c.18.12.36.12.53.06s.3-.24.36-.42l.36-1.72h1.43l.36,1.72c.06.18.18.36.36.42s.42.06.53-.06l1.43-.95,1.01,1.01-.95,1.43c-.12.18-.12.36-.06.53.06.18.24.3.42.36l1.72.36v1.43Z"/>
    <path class="cls-1" d="M48,45.33c-1.49,0-2.67,1.19-2.67,2.67s1.19,2.67,2.67,2.67,2.67-1.19,2.67-2.67-1.19-2.67-2.67-2.67ZM48,49.49c-.83,0-1.49-.65-1.49-1.49s.65-1.49,1.49-1.49,1.49.65,1.49,1.49-.65,1.49-1.49,1.49Z"/>
  </g>
</svg>