<?xml version="1.0" encoding="UTF-8"?>
<svg id="Lager_1" data-name="Lager 1" xmlns="http://www.w3.org/2000/svg" viewBox="0 0 96 96">
  <defs>
    <style>
      .cls-1 {
        fill: #fff;
      }

      .cls-2 {
        fill: #00a5dd;
      }
    </style>
  </defs>
  <ellipse class="cls-2" cx="48" cy="48" rx="32.93" ry="48.53" transform="translate(-8.73 85.28) rotate(-78.32)"/>
  <g>
    <path class="cls-1" d="M43.38,64.85c.8.24,1.61.08,2.09-.24.56-.24.89-.72.97-1.13.08-.32,0-.56-.08-.56-.16,0-.24.64-1.13.89-.4.08-.97.16-1.45-.08-.24-.08-.4-.24-.48-.4-.16-.16-.16-.4-.16-.64.08-.56.56-.97,1.05-1.13.48-.16.97,0,1.29.24s.48.64.64.89c.08.24.16.4.24.4s.16-.16.16-.48-.08-.8-.48-1.29-1.21-.89-2.09-.72c-.89.16-1.69.89-1.93,1.93-.08.48,0,1.05.24,1.53.32.4.72.64,1.13.8ZM44.34,32.02c-1.45,0-2.66.24-2.66.56s1.21.56,2.66.56,2.66-.24,2.66-.56-1.21-.56-2.66-.56Z"/>
    <path class="cls-1" d="M64.46,50.12c.24-.08.56-.08,1.05-.08.24,0,.48-.08.72-.24.24-.16.48-.32.64-.56.56-.89.56-1.77.32-2.57s-.72-1.53-1.45-2.01c-.32-.24-.8-.4-1.29-.48-.24,0-.48,0-.72.08-.24.08-.4.08-.56.16s-.24.08-.32.08h0v-.16c0-.32.4-.72.64-1.29.16-.4.16-.8.16-1.21-.08-.8-.4-1.61-1.05-2.17s-1.53-.89-2.41-.56c-.48.16-.8.56-.97.89-.16.32-.32.64-.48.8-.16.16-.32.32-.4.32s-.16,0-.24-.16c-.08-.16-.08-.48-.16-.72-.08-.32-.08-.64-.32-1.05-.08-.16-.24-.32-.32-.4-.08-2.17-.08-3.06-.16-4.67,0-.24-.08-.48-.08-.72-.08-.24-.08-.48-.16-.72-.24-.89-.72-1.69-1.37-2.17-1.21-.97-2.41-1.21-3.22-1.37-.8-.08-1.21-.08-1.21-.08,0,.08.4.08,1.13.32s1.93.48,2.98,1.45c.48.48.89,1.13,1.13,2.01.24.8.16,1.77.16,2.9v2.74c-.32-.08-.64-.08-.97-.08-.64.08-1.21.32-1.69.64v-.48c0-.32-.08-.72-.16-.97-.24-.64-.64-1.13-1.05-1.45-.89-.64-1.69-.72-2.25-.8-.56-.08-.8,0-.8,0,0,.08.24.08.8.24.48.16,1.29.32,2.01.89.32.32.64.72.8,1.21.08.24.08.56.08.89v.97c-.32.32-.56.72-.64,1.21-.08.4.08.72.16.97s.16.48.08.56c0,.24-.4.56-.64.56-.24.08-.56-.32-1.05-.56-.97-.56-2.25-.4-3.06.16-.8.64-1.21,1.61-1.13,2.49,0,.4.24.97.72,1.13.48.16.8.08,1.05.16.56.08.97.56.89.89,0,.16-.16.32-.4.4-.4.24-1.13.4-1.61.64-.56.24-.72.56-.64.56,0,0,.24-.24.72-.4s1.21-.24,1.69-.48c.24-.08.56-.24.64-.64.16-.56-.24-1.29-1.21-1.53-.32-.08-.72-.08-.97-.24-.24-.08-.32-.32-.32-.64-.08-.64.32-1.37.89-1.77s1.53-.48,2.17-.08c.16.08.32.24.56.4.24.16.56.32.97.32.72,0,1.37-.48,1.53-1.29.08-.4-.08-.72-.16-.97-.08-.24-.16-.4-.08-.64,0-.32.32-.72.72-.97.4-.32.89-.48,1.37-.48.48-.08.97.08,1.05.4.08.16.16.4.16.72.08.32.08.64.24,1.05s.72.89,1.29.8c.56-.08.89-.4,1.13-.72.48-.64.64-1.21.97-1.29.32-.16.89,0,1.29.32.56.48.8,1.45.56,2.25-.08.24-.24.48-.48.8-.16.32-.4.97-.08,1.53.16.32.48.48.8.56.48.08.8-.08,1.21-.24h.32c.24,0,.48.08.72.24.48.32.8.89.97,1.45.16.56.16,1.21-.16,1.61-.16.16-.24.24-.56.32s-.72,0-1.21.16c-.24.08-.64.24-.8.56-.16.32-.16.72-.08,1.05.24.56.64.89,1.13,1.05.4.16.72.24.97.32s.32.24.4.48c.08.48-.16.97-.56,1.53-.24.24-.4.48-.64.56-.16.08-.4.08-.64,0-.56-.16-1.13-.72-2.17-.72-.24,0-.48.08-.72.16-.24.16-.48.4-.56.64-.16.48-.08.89-.08,1.29.08.4.16.72.24,1.05.08.32.08.64.08.56,0,0-.08.08-.32.16-.64.24-1.29.4-1.85.56-.4.08-.64.08-.89-.16-.24-.16-.4-.56-.48-.89-.08-.4-.16-.8-.4-1.29-.08-.24-.32-.48-.64-.64-.32-.16-.72-.08-1.05.16-.24.24-.4.48-.48.72-.08.24-.16.4-.24.56-.16.32-.32.4-.56.48-.56.16-1.21-.08-1.85-.32-.32-.16-.64-.32-.8-.48-.16-.16-.24-.32-.24-.64,0-.56.4-1.05.64-1.77.08-.32.16-.72.08-1.05-.08-.4-.4-.72-.72-.8-.72-.24-1.29.08-1.69.16-.48.08-.89.08-1.13-.16-.56-.48-.72-1.29-.89-1.85-.16-1.21.24-1.77.16-1.77,0-.08-.56.56-.48,1.85,0,.32.08.64.16,1.05.16.4.32.8.72,1.13.4.4,1.05.4,1.53.32s1.05-.24,1.37-.08c.32.16.48.56.24,1.13-.16.48-.64,1.05-.72,1.85-.08.4.08.97.4,1.29.32.32.64.48.97.64.32.16.72.32,1.13.48h.08c-.16.4-.32.64-.8.72-.48.08-1.13.08-1.77.08-.8,0-3.94.08-5.79.08-.64,0-1.37,0-2.01.08-.64,0-1.37.08-2.01.08s-1.29,0-1.85-.08c-.24-.08-.56-.16-.56-.24-.08-.16-.24-.4-.32-.64-.16-.56-.16-1.21-.24-1.85s-.08-1.29-.16-1.85c-.08-2.49-.08-4.99-.08-7.32-.08-5.63,0-6.36,0-8.21v-1.45c0-.48.08-.8.32-1.05.24-.24.64-.4.97-.56,1.61-.48,3.22-.48,4.59-.56,3.86-.16,3.78-.16,4.91-.24h.97c.48,0,.8,0,.8-.08s-.24-.08-.8-.16c-.24,0-.56-.08-.97-.08s-.8,0-1.29-.08h-5.87c-.8,0-1.69.16-2.57.4-.48.16-.97.32-1.37.72-.24.24-.4.48-.48.8s-.08.56-.08.8v1.45c0,2.01-.08,3.14-.08,8.21,0,2.33-.08,4.75.08,7.32,0,.64.08,1.29.16,1.93.08.64.08,1.29.32,2.01.08.32.24.72.56,1.13.4.4.8.48,1.21.64.72.16,1.45.16,2.09.16.72,0,1.37-.08,2.01-.08h1.93c1.69-.08,3.38-.08,5.79-.16.64,0,1.21,0,1.93-.16.32-.08.72-.24,1.05-.56s.48-.72.56-1.05v-.24c.08,0,.16,0,.16-.08.24-.08.48-.16.64-.32.24-.16.4-.4.48-.64.16-.4.32-.8.4-.89h.16s.08.08.16.24c.16.32.24.72.32,1.13h0c-.08,1.45-.24,3.46-.24,4.91v1.29c-.08.8-.32,1.61-.89,1.93-.64.4-1.53.32-2.49.4s-1.85.08-2.82.16c-3.78.24-7.72.48-11.75,0-.97-.08-2.01-.16-2.98-.24-.8-.08-1.45-.72-1.69-1.45-.08-.24-.16-.4-.16-.64s-.08-.48-.08-.72c-.16-1.93-.16-4.18-.24-9.9v-15.29c.08-1.53,0-3.06.16-4.51.64-.8.72-1.53.89-2.17.08-.56.48-.97.97-1.29,1.13-.56,2.33-.8,3.54-.89,1.13-.16,2.33-.16,3.3-.24,2.09-.08,3.94-.16,5.39-.24.72,0,1.37-.08,1.93-.08h1.45c.8,0,1.21,0,1.21-.08s-.4-.08-1.21-.16c-.4,0-.89-.08-1.45-.16h-7.4c-1.05,0-2.17,0-3.38.08-.64.24-1.29.32-2.01.48-.32,0-.64.08-1.05.16-.56.08-1.29.32-2.09.72-.72.4-1.61.97-2.25,1.85-.72.8-1.21,2.01-1.45,3.22-.24,1.29-.24,2.57-.32,3.94v9.01c0,3.14,0,6.2.08,8.93,0,1.37.08,2.66.08,3.94.08,1.21.16,2.41.56,3.46.32,1.05,1.05,1.93,1.85,2.33.8.4,1.53.48,2.17.48h1.21c.16,0,.24.08.4.08,1.05.08,2.01.16,3.06.24,4.83.56,9.74.08,14.64-.16.89-.08,1.93,0,2.98-.56.48-.32.89-.8,1.13-1.29.24-.48.24-1.05.32-1.45v-1.37c0-1.45,0-1.21.08-3.46.24.16.48.24.64.24.32.08.56,0,.8,0,.72-.08,1.45-.32,2.09-.56.24-.08.56-.16.8-.64.16-.32.16-.56.16-.8-.08-.48-.24-.97-.32-1.53-.08-.32-.08-.56,0-.72,0-.08.08-.08.08-.08.08,0,.16-.08.24-.08.16,0,.48.08.72.24.32.16.64.32,1.05.48.4.16.97.24,1.45,0s.8-.56,1.05-.8c.24-.32.48-.64.64-1.05s.24-.97.16-1.45c-.08-.48-.48-1.05-.97-1.21-.4-.24-.8-.32-1.13-.4-.24-.08-.4-.32-.48-.4v-.08c.16-.08.08-.08.24-.08ZM30.1,63.96h0c-.24-.89-.32-1.85-.4-2.9.64,0,1.61-.48,2.17-1.05,0,1.69.08,2.09.08,2.74-.64.24-1.45.72-1.85,1.21ZM32.11,37.25c-.8.48-1.77,1.45-2.33,2.33v-2.9c.4-.16,1.05-.64,1.69-1.37.32-.32.56-.56.72-.89-.08.97-.08,1.85-.08,2.82ZM32.03,41.59v1.93c-.48.08-1.13.56-1.45.97-.32.32-.56.56-.72.8v-1.93c.56-.32,1.69-1.21,2.17-1.77ZM29.78,57.12v-2.01c.64-.24,1.61-.8,2.17-1.37v1.85c-.64.32-1.77,1.05-2.17,1.53ZM29.78,46.34c.4-.08.97-.48,1.53-1.05.24-.24.48-.56.64-.72v2.33c-.4.16-.89.48-1.37.97-.32.32-.56.56-.8.89,0-1.05,0-.24,0-2.41ZM29.78,49.64c.4-.08.97-.48,1.61-1.05.24-.24.4-.4.64-.64v1.77c-.72.24-1.61,1.05-2.17,1.69-.08-.48-.08-1.13-.08-1.77ZM29.78,52.46c.4-.08.97-.4,1.61-.89.24-.16.4-.4.56-.56v1.93c-.4,0-.97.24-1.53.64-.24.16-.4.32-.56.48-.08-.56-.08-1.05-.08-1.61ZM29.78,57.85c.4,0,1.05-.16,1.69-.64.16-.16.32-.24.48-.4v2.25c-.32.08-.89.32-1.37.64-.32.16-.56.32-.8.56-.08-.8,0-1.61,0-2.41ZM32.03,40.79c-.4,0-1.05.32-1.69.8-.24.16-.4.32-.56.56v-1.69c.4-.08,1.13-.64,1.85-1.37.16-.16.32-.32.4-.48v2.17ZM31.07,32.18c.56-.8,1.29-1.37,1.93-1.77h.08c-.24.24-.4.64-.48.97-.08.64-.24,1.21-.32,1.85-.32.16-.97.64-1.61,1.37-.32.32-.56.64-.8.97,0-.16,0-.24.08-.4.16-1.21.56-2.25,1.13-2.98ZM33.4,66.62c-.56-.08-1.29-.32-1.93-.64-.48-.24-.8-.72-1.13-1.29.32-.08.8-.24,1.29-.48.16-.08.32-.24.48-.32v.24c.08.24.08.56.24.8.16.56.48,1.05.97,1.45.16.16.32.24.4.32-.08,0-.16,0-.32-.08Z"/>
    <path class="cls-1" d="M54.96,54.06c2.01.89,4.67.32,6.28-1.61.8-.97,1.21-2.17,1.29-3.3s-.24-2.25-.72-3.14c-.48-.89-1.05-1.77-1.93-2.25-.97-.48-1.85-.48-2.57-.48-1.53,0-2.74.56-3.38,1.13-.64.48-.89.97-.89.97.08.08.4-.24,1.13-.56.72-.32,1.77-.72,3.14-.64.32,0,.64.08.97.08,0,.24.08.48.16.8.16.97.16,2.41-.32,3.78-.48,1.37-1.45,2.41-2.25,2.98-.64.48-1.13.64-1.29.8-1.05-.8-1.69-1.93-2.01-2.9-.4-1.29-.16-2.41.08-3.14.32-.72.56-1.05.48-1.13,0-.08-.48.16-.89.97-.4.72-.8,2.01-.48,3.54.4,1.77,1.69,3.38,3.22,4.1ZM58.5,50.36c.16.16.4.32.72.48.8.32,1.53.24,1.61-.08s-.48-.72-1.13-.97c-.24-.08-.48-.16-.72-.24.08-.16.08-.24.16-.4.08-.24.16-.48.24-.72.16.16.4.24.64.32.56.16,1.13,0,1.21-.32s-.32-.64-.97-.8c-.32-.08-.56-.08-.8,0,.08-1.05,0-2.09-.24-2.82-.08-.16-.08-.32-.16-.4.16.08.24.08.4.16.64.32,1.13,1.05,1.45,1.85.4.8.56,1.69.48,2.66-.08.97-.4,1.85-1.05,2.57-.24.24-.48.48-.72.72-.16-.24-.64-.32-1.21-.56-.32-.08-.64-.24-.89-.32.32-.24.64-.64.97-1.13ZM56.25,52.46c.24-.08.48-.24.72-.4q0,.08.08.16c.16.32.48.64.97.8.16.08.32.08.4.08-1.05.4-2.17.4-3.06,0-.16-.08-.4-.16-.56-.32.32,0,.8-.08,1.45-.32Z"/>
  </g>
</svg>