<?xml version="1.0" encoding="UTF-8"?>
<svg id="Lager_1" data-name="Lager 1" xmlns="http://www.w3.org/2000/svg" viewBox="0 0 96 96">
  <defs>
    <style>
      .cls-1 {
        fill: #006fa2;
      }

      .cls-2 {
        fill: #fff;
      }
    </style>
  </defs>
  <ellipse class="cls-1" cx="48" cy="48" rx="32.93" ry="48.53" transform="translate(-8.73 85.28) rotate(-78.32)"/>
  <g>
    <path class="cls-2" d="M28.23,63.21c.46-.07.91,0,1.37-.07.52,0,1.04-.07,1.63-.13,1.04-.07,2.09-.13,3.13-.13,2.09-.07,4.24-.13,6.33-.2,1.04,0,2.02-.07,3.07,0,1.04,0,2.09.07,3.13.07,2.09,0,4.24-.07,6.33-.07,2.35-.07,4.7-.07,7.12-.07,1.18,0,2.35.07,3.59.07h3.46c.46,0,.78-.39.78-.85s-.39-.78-.78-.78h-.2v-4.96c.07-1.89.13-3.72.13-5.61,0-.85,0-1.7-.07-2.55-.07-.98-.07-1.96-.13-2.94,0-.39,0-.78-.07-1.18,0-.46,0-.91-.13-1.31-.07-.26-.2-.52-.39-.72-.13-.13-.26-.2-.39-.26-.2-.13-.46-.26-.65-.39-.26-.2-.52-.33-.78-.52-.26-.13-.46-.33-.72-.46.2-.13.26-.33.26-.59-.07-.65-.07-1.31-.13-1.96s-.2-1.31-.26-1.89c-.07-.26-.07-.46-.13-.72-.07-.39-.33-.72-.65-.85-.2-.07-.33-.13-.52-.13h-.2c-.13,0-.33,0-.46-.07-.33-.07-.59-.13-.91-.2l-.98-.2c-.2,0-.33-.07-.52-.07h-.26c-.13,0-.33,0-.46.07-.07.07-.2.07-.26.13-.13.07-.26.2-.39.39-.13.2-.2.39-.2.65v.59c0,.33,0,.65.07.98v.39c-.26-.13-.52-.2-.78-.33-.39-.13-.72-.26-1.11-.33-.26-.07-.59-.13-.85-.07-.13,0-.26.07-.39.13-.13.07-.33.26-.39.39s-.07.2-.13.33-.07.26-.07.46v1.63c0,.85,0,1.7-.07,2.61,0,.39-.07.78-.07,1.18v.39c-.26-.2-.59-.39-.85-.65.07.07.13.07.2.13l-1.96-1.57c.2-.13.39-.39.39-.65,0-.72,0-1.37-.07-2.09-.07-.78-.13-1.63-.2-2.42-.07-.39-.07-.72-.07-1.11v-.65c0-.13,0-.33-.07-.46-.13-.26-.2-.52-.46-.65-.2-.13-.39-.2-.65-.2h-.07c-.2,0-.33,0-.52.07-.59,0-1.18.07-1.76.07-.46,0-.91-.07-1.24.2-.13.07-.26.2-.33.33s-.13.26-.2.46c-.07.2-.07.39-.07.65,0,.72,0,1.37-.07,2.09v.39c-.13-.07-.2-.13-.33-.2-.33-.2-.59-.39-.91-.65-.13-.13-.26-.2-.46-.33-.13-.07-.26-.2-.39-.26-.07,0-.13-.07-.2-.07-.13,0-.2-.07-.33-.07h-.07c-.33,0-.65.26-.78.52-.07.13-.13.33-.2.46-.07.2-.13.33-.2.52-.07.13-.07.26-.07.39-.07.26-.07.52-.07.78-.07.72-.07,1.37-.07,2.09,0,.85-.07,1.63-.07,2.42v.91c-.52-.33-1.04-.72-1.5-1.11-.78-.52-1.57-1.04-2.35-1.5-.85-.52-1.7-1.04-2.55-1.63-.85-.52-1.7-1.04-2.61-1.5-.39-.2-.85-.39-1.24-.59-.46-.2-.91-.46-1.44-.46-.2,0-.39.07-.59.13-.65.39-.59,1.18-.59,1.76,0,.85.07,1.7.07,2.55.07.98.07,1.89.07,2.87,0,3.13,0,6.2.07,9.34,0,1.57.13,3.07.13,4.63v2.22c0,.65-.07,1.31.07,2.02-.33.07-.65.07-.98.13-.13,0-.33,0-.46.07-.26.07-.39.39-.33.65-.07-.07.2.07.39.07h0ZM45.33,61.51c0-.07.07-.07,0,0q.07-.07,0,0ZM45.33,61.45v-.52c.13-.13.26-.26.39-.46.26-.26.46-.52.72-.78.59-.65,1.18-1.24,1.76-1.83.13-.13.2-.39.13-.59.39,0,.78.07,1.18.07-.65.72-1.37,1.44-2.09,2.09-.39.33-.72.72-1.11,1.04-.26.39-.59.72-.98.98ZM45.72,59.03l.2-.59c.07-.2.13-.46.2-.65,0-.07.07-.13.07-.2.13-.07.26-.07.46-.13.26,0,.46-.07.72-.07-.46.46-.91.98-1.37,1.5-.13,0-.2.07-.26.13ZM48.86,60.93c-.13.13-.2.26-.33.33l-.2.2c-.52,0-.98,0-1.5.07.39-.33.85-.72,1.24-1.11.85-.78,1.63-1.57,2.42-2.35.13-.13.2-.33.13-.52.2,0,.33.07.52.07.26.07.52.07.78.13-.07,0-.13.07-.13.13-.72.72-1.37,1.44-2.09,2.09-.26.39-.59.65-.85.98ZM51.86,61.45c.13-.13.26-.26.33-.39v.33c-.07.07-.2.07-.33.07ZM52.25,59.62v.26h-.13c-.13,0-.26.07-.33.13-.26.33-.52.59-.78.91-.07.13-.2.2-.26.33-.07.07-.13.13-.13.2h-.78l.78-.78,1.76-1.76c-.13.33-.13.52-.13.72ZM62.7,37.29c0,.26.07.59.07.85h-.07c-.13,0-.26.07-.33.13-.13.13-.26.33-.39.46-.07-.07-.2-.13-.26-.13,0,0,0-.07.07-.07.2-.33.46-.59.72-.91v.07c0-.13.07-.26.2-.39ZM61.52,35.47s0-.07.07-.13c.26.07.52.2.72.26.07.07.07.13.13.2.07.2.13.39.2.65-.07-.07-.2-.07-.26-.13-.13,0-.33.07-.39.13-.39.46-.78.91-1.11,1.37l-.07.07c-.26-.13-.52-.33-.78-.46,0,0,0-.07.07-.07.13-.2.33-.46.46-.65.26-.33.59-.78.98-1.24ZM59.37,36.12c.07-.33.13-.59.2-.85,0-.13.07-.2.07-.33h.2c.2,0,.39.07.59.13-.33.39-.59.78-.85,1.24-.07.13-.13.26-.2.33v-.52ZM50.29,39.91c-.07,0-.07-.07-.13-.07,0-.07.07-.07.07-.13,0,.07,0,.13.07.2ZM50.23,37.56v.65c-.2.26-.46.52-.65.78-.07.07-.13.13-.2.26-.2-.13-.39-.26-.52-.39l1.37-1.57c-.07,0,0,.13,0,.26ZM50.16,34.42c-.07,0,0,0,0,0ZM47.81,34.23q0-.07,0,0ZM47.75,34.29s0,.07-.07.07c.07,0,.07-.07.07-.07ZM47.75,34.29c-.07,0,0,0,0,0ZM47.81,34.29h.85l-1.18,1.57c0-.59.13-1.11.33-1.57ZM47.68,37.36c.2-.33.39-.59.59-.85l1.18-1.57v.07c.07-.07.07-.13.13-.13.13-.13.2-.2.2-.39v-.07h.2c.07.2.07.33.13.52.07.33.07.65.07.98-.13,0-.26.07-.33.13-.39.46-.78.91-1.18,1.44-.2.26-.39.46-.52.72-.2-.13-.39-.26-.59-.46-.07-.13.07-.26.13-.39ZM30.32,50.09c0-2.09.13-4.11.2-6.14.07-1.83.13-3.66.33-5.42v-.13c.26.07.59.13.85.26,1.11.46,2.15,1.11,3.13,1.76,1.04.65,2.09,1.37,3.07,2.15l-.07-.07c.65.52,1.24.98,1.89,1.5.65.46,1.24.91,1.89,1.37.2.13.46.13.65.07.07,0,.07-.07.13-.07s.13.07.2.07c.26,0,.52-.2.52-.52v-.13c.13-.33.13-.72.13-1.11,0-.46,0-.91.07-1.44.07-.85.13-1.7.26-2.55v.07c.13-.72.2-1.44.33-2.15,0-.13.07-.26.07-.46.59.26,1.04.65,1.57.98.72.52,1.37,1.04,2.09,1.57h-.07c1.11.85,2.15,1.7,3.26,2.61.91.72,1.83,1.5,2.68,2.28.2.13.33.33.59.46.46.26.98.26,1.37-.13.33-.33.33-.78.26-1.24,0-.33-.07-.59-.07-.91v-1.89c0-.65.13-1.31.2-1.96v.13c.07-.39.13-.72.13-1.11,0-.13.07-.33.07-.46.46.07.85.2,1.24.39.78.33,1.57.78,2.28,1.18.78.46,1.57.98,2.35,1.5.72.52,1.44,1.04,2.22,1.57l1.18.78c0,.07.07.07.07.13.13.33.13.65.2.98.07.65.13,1.37.13,2.02v6.33c0,.85-.07,1.7-.07,2.55,0,.72,0,1.37-.07,2.09,0,.72-.13,1.44-.13,2.15,0,.59,0,1.11-.07,1.7v.13h-.98c-.98.07-2.02.13-3,.13-2.09.07-4.11.2-6.2.2h-1.44v-.13c0-.46-.07-.91-.07-1.31-.07-.39-.13-.78-.13-1.18v-1.24c0-.13.07-.26,0-.39,0-.2-.07-.39-.13-.52-.2-.33-.52-.52-.91-.52h-1.57c-.91.07-1.76.07-2.68.07-.85,0-1.7,0-2.55-.07h-.33c-.2,0-.33.07-.52.13-.26.13-.46.39-.52.65-.07.26-.07.46-.13.72-.07.72,0,1.44-.07,2.15,0,.46-.07.85-.13,1.31,0,.2-.07.39-.07.65-.52,0-1.04.07-1.57.07-2.35.07-4.7.07-7.05.2-1.24.07-2.48.07-3.66.07-.46,0-.85,0-1.31.07.07-.13.07-.26.07-.46v-.65c0-.52-.07-1.04-.07-1.57l-.2-2.94c.13-1.11.07-2.15.07-3.2s0-2.09.07-3.13h0ZM28.36,63.21s-.07,0,0,0q-.07,0,0,0Z"/>
    <path class="cls-2" d="M39.85,51.92c-.07,0-.07-.07,0,0-.07-.07-.07,0,0,0Z"/>
    <path class="cls-2" d="M33.19,53.22c.2.07.46.07.72.07h1.31c.59,0,1.11,0,1.7.07.52,0,1.04.07,1.5.07.39,0,.78,0,1.04-.26.13-.13.26-.33.33-.52s0-.46,0-.72v.07-.2.13c-.13-1.31-.13-2.55-.07-3.85,0-.39,0-.72.07-1.04v-.26c0-.2-.07-.39-.13-.59-.2-.39-.65-.52-1.04-.59-.52-.13-1.04-.26-1.5-.39-.59-.13-1.18-.2-1.76-.2h-.65c-.26,0-.46,0-.72.07-.2,0-.33.07-.52.13-.26.13-.52.26-.65.52-.2.26-.13.65-.13.98,0,.13.07.26.13.39v.13c-.07.33-.07.65-.07.98,0,.52-.07,1.11-.13,1.63l-.2,1.76c0,.2-.07.46-.07.65s.07.39.2.59c.13.2.39.33.65.39ZM38.35,51.2c-.07-.07-.07-.13-.13-.13-.07-.07-.2-.07-.26-.07h-.13c-.13,0-.2.13-.33.2-.13.2-.33.39-.46.59l-.07.07h-.39c.13-.13.26-.33.39-.46.46-.52.85-.98,1.31-1.5.07.46.07.85.07,1.31ZM37.76,47.93c0-.07.07-.07,0,0q.07-.07,0,0c.13-.13.2-.26.26-.33.07.33.07.65.13,1.04v.2h-.07c-.13,0-.33.07-.39.13-.46.59-.98,1.11-1.44,1.7-.2.2-.39.46-.59.72-.13.13-.2.26-.33.39-.07.07-.13.2-.26.26-.2,0-.33,0-.46-.07.07-.13.13-.2.2-.33.33-.46.65-.85.98-1.31.72-.85,1.31-1.63,1.96-2.42ZM34.04,46.82c.26-.13.59-.13.85-.2h.07c-.33.46-.65.91-.98,1.44v-.85c.07-.07.07-.2.07-.39ZM34.04,50.02c.26-.52.65-1.04.98-1.5.39-.59.78-1.11,1.18-1.7.07-.07.07-.13.07-.13h.33c.2,0,.46.07.65.13-.72.85-1.37,1.7-2.02,2.61-.33.46-.72.91-1.04,1.37-.07.07-.13.13-.2.26.07-.39,0-.72.07-1.04ZM45.01,53.42c.39.13.85.07,1.31,0l1.96-.2c.59-.07,1.18-.13,1.83-.2h.72c.13,0,.26,0,.39-.07.26,0,.46-.13.65-.33.33-.33.33-.85.26-1.24v-.91c0-.59.07-1.11.13-1.7.07-.65.26-1.24.26-1.89v-.13c0-.2-.07-.33-.13-.52-.13-.26-.39-.46-.65-.59-.26-.07-.59-.07-.85-.07h-.85c-.85,0-1.7-.07-2.55-.07-.33,0-.65-.07-.98-.07h-.26c-.2,0-.33,0-.46.13s-.33.2-.39.39c-.13.2-.13.52-.13.78,0,.07,0,.13.07.26-.2.26-.26.52-.26.85-.07.39-.13.78-.13,1.11-.07.52-.13,1.04-.26,1.63-.07.33-.13.65-.13.98-.07.33-.13.59-.13.91,0,.2.07.39.2.65-.07.07.13.2.39.26ZM50.68,50.74c0,.2-.07.39-.13.59-.13,0-.2.07-.33.07-.2.07-.33.07-.52.13.33-.39.65-.72.98-1.11.07.13.07.26,0,.33ZM50.62,47.09c-.07,0-.07-.07-.13-.07,0,.07.07.07.13.07ZM50.29,47.8c.13-.13.2-.2.2-.39,0-.13-.07-.26-.13-.33.07,0,.2.07.26.07v.2c0,.33.07.65.13.98,0,.26,0,.52.07.78-.13,0-.26.07-.33.13-.72.85-1.5,1.7-2.22,2.55,0,.07-.07.07-.13.13s-.07.07-.07.13c-.2.07-.39.07-.59.13-.26,0-.52.07-.78.07.39-.46.85-.98,1.24-1.44.65-.78,1.24-1.57,1.89-2.35l-.07.07c.2-.33.33-.52.52-.72ZM46.31,47.22h-.13.13ZM46.18,47.93c0-.2.07-.39.07-.59v-.07c.07,0,.13-.07.2-.13.2,0,.39-.07.59-.07-.33.33-.59.72-.85,1.04-.07,0-.07-.13,0-.2ZM45.92,50.28c.07-.13.13-.2.26-.33.13-.2.26-.33.39-.52.33-.39.65-.85.98-1.24,0,0,0,.07-.07.07.33-.33.59-.72.91-1.04.07-.07.07-.13.13-.2.33,0,.65-.07.98,0-.78.91-1.57,1.89-2.28,2.87-.33.46-.72.85-1.04,1.31-.07.13-.2.2-.26.33v-1.24ZM58.39,52.83c.39,0,.78-.13,1.18-.13.46-.07.85-.07,1.31-.07h1.5c.33,0,.59,0,.91-.07.39-.07.65-.39.78-.72.13-.39,0-.78-.07-1.18-.07-.85,0-1.7.07-2.55,0-.33.07-.65.07-.91s0-.59-.07-.85c-.07-.13-.13-.33-.26-.46-.2-.13-.33-.26-.52-.33-.26-.07-.59-.13-.85-.13-.46,0-.98-.07-1.44-.13-.52-.07-.98-.13-1.5-.13-.2,0-.46-.07-.65-.07s-.39.07-.52.2c-.2.13-.26.26-.33.39-.2.07-.39.26-.39.52v.07c0,.07-.07.2-.07.26,0,.13,0,.26-.07.39v1.04c0,.72-.07,1.37-.13,2.09v.85c0,.33,0,.65.07.91,0,.59.39.98.98.98ZM62.44,48.26v.13-.07c.13.78.2,1.63.13,2.42v.13c-.13,0-.26.07-.39.07s-.26.07-.46.07c.2-.26.46-.46.65-.72.07-.13.2-.2.2-.39,0-.13-.07-.26-.13-.39-.07-.13-.26-.13-.39-.13s-.26.07-.33.13c-.33.39-.72.78-1.04,1.18-.13.2-.33.39-.46.59-.33.07-.65.07-.98.07l.2-.2c.33-.33.65-.65.98-1.04.72-.78,1.37-1.5,2.09-2.22-.13.07-.07.2-.07.39ZM61.06,47.02c.07-.07.13-.13.13-.2h.33c.07,0,.13,0,.2.07-.78.78-1.44,1.57-2.15,2.42-.26.33-.52.59-.78.91,0-.13-.07-.2-.07-.33.72-.85,1.37-1.7,2.02-2.48,0,.07-.07.07-.07.13.13-.26.26-.39.39-.52ZM58.65,46.96c.13,0,.26-.07.39-.07h.07c.26,0,.52-.07.72-.07-.39.46-.72.91-1.11,1.31l-.13.13v-.33c.07-.33.07-.65.07-.98ZM37.76,47.87s0,.07,0,0q0,.07,0,0t0,0Z"/>
  </g>
</svg>