<?xml version="1.0" encoding="UTF-8"?>
<svg id="Lager_1" data-name="Lager 1" xmlns="http://www.w3.org/2000/svg" viewBox="0 0 96 96">
  <defs>
    <style>
      .cls-1 {
        fill: #fff;
      }

      .cls-2 {
        fill: #00a5dd;
      }
    </style>
  </defs>
  <ellipse class="cls-2" cx="48" cy="48" rx="32.93" ry="48.53" transform="translate(-8.73 85.28) rotate(-78.32)"/>
  <g id="layer1">
    <path id="path1-380-4-6" class="cls-1" d="M48.84,29.82c-1.33.05-2.65.3-3.7.68-2.23.81-3.62,1.99-4.24,3.13-1.02,1.89-1.5,3.95-1.42,6.36.05,1.56.71,3.63,1.46,4.63,1.46,1.95,2.65,3.12,4.61,3.99,2.45,1.09,4.57.78,8.05-1.18,1.28-.72,1.95-1.29,2.91-2.49,1.09-1.37,1.84-2.37,1.84-5.28.1-1.81-.31-3.45-1.64-5.34-1.33-1.89-2.28-3.24-4.13-3.98-1.07-.43-2.41-.58-3.74-.53h0ZM48.62,31.95c1.75,0,3.34.56,4.19,1.21,2.87,2.19,4.61,5.71,2.73,9.25-2.16,4.07-4.54,4.32-6.8,4.52-1.94.17-5.06-1.81-6.26-4.21-.82-1.65-1.03-3.73-.38-5.65.5-1.46,1.33-3.04,2.4-3.82,1.3-.93,2.76-1.29,4.13-1.3ZM47.63,51.88c-2.55.03-4.77,1.24-9.06,4.58-.7.55-1.64,2.06-2.44,3.93-1.09,2.56-1.25,3.28-.98,4.56.18.84,1,1.99,1.63.58.49-.88.95-1.84.92-2.62-.03-.85,2.22-4.61,3.46-5.54,2.03-1.53,4.38-2.68,6.37-3.11,2.37-.51,4.59.24,6.69,2.26,1.51,1.46,3.61,5.12,4.1,7.14l1.59,2.19c1.35-.08,1.43-1.48.16-4.24-2.81-6.11-5.78-8.8-10.59-9.57-.65-.11-1.26-.16-1.84-.15h0Z"/>
  </g>
</svg>