<?xml version="1.0" encoding="UTF-8"?>
<svg id="Lager_1" data-name="Lager 1" xmlns="http://www.w3.org/2000/svg" viewBox="0 0 96 96">
  <defs>
    <style>
      .cls-1 {
        fill: #006fa2;
      }

      .cls-2 {
        fill: #fff;
      }
    </style>
  </defs>
  <ellipse class="cls-1" cx="48" cy="48" rx="32.93" ry="48.53" transform="translate(-8.73 85.28) rotate(-78.32)"/>
  <path class="cls-2" d="M64.07,33.94H31.93c-2.03,0-3.68,1.65-3.68,3.68v20.75c0,2.03,1.65,3.68,3.68,3.68h32.13c2.03,0,3.68-1.65,3.68-3.68v-20.75c0-2.03-1.65-3.68-3.68-3.68ZM64.11,39.34l-8.68,8.68,8.35,8.66c.38.4.37,1.04-.03,1.42-.19.18-.44.28-.7.28-.27,0-.53-.11-.72-.31l-8.33-8.63-2.46,2.46c-1.96,1.95-5.13,1.95-7.1,0l-2.46-2.46-8.33,8.63c-.38.4-1.02.41-1.42.03-.4-.38-.41-1.01-.03-1.41,0,0,0,0,0,0l8.35-8.66-8.68-8.68c-.41-.38-.43-1.01-.05-1.42.38-.41,1.01-.43,1.42-.05.02.02.03.03.05.05l12.56,12.56c1.18,1.17,3.08,1.17,4.26,0l12.56-12.56c.41-.38,1.04-.36,1.42.05.36.39.36.98,0,1.37Z"/>
</svg>