<?xml version="1.0" encoding="UTF-8"?>
<svg id="Lager_1" data-name="Lager 1" xmlns="http://www.w3.org/2000/svg" viewBox="0 0 96 96">
  <defs>
    <style>
      .cls-1 {
        fill: #1a6d9f;
      }
    </style>
  </defs>
  <path class="cls-1" d="M43.63,50.19v4.37c0,1.21-.98,2.19-2.19,2.19v-8.75c1.2,0,2.19.98,2.19,2.19ZM28.32,48v4.37h2.19v-4.37h-2.19ZM67.68,41.44v21.87c0,3.62-2.94,6.56-6.56,6.56H21.76c-3.62,0-6.56-2.94-6.56-6.56v-21.87c0-3.62,2.94-6.56,6.56-6.56h39.36c3.62,0,6.56,2.94,6.56,6.56ZM34.88,48c0-2.41-1.96-4.37-4.37-4.37h-4.37c-1.21,0-2.19.98-2.19,2.19v13.12c0,1.21.98,2.19,2.19,2.19s2.19-.98,2.19-2.19v-2.19h2.19c2.41,0,4.37-1.96,4.37-4.37v-4.37ZM48,50.19c0-3.62-2.94-6.56-6.56-6.56h-2.19c-1.21,0-2.19.98-2.19,2.19v13.12c0,1.21.98,2.19,2.19,2.19h2.19c3.62,0,6.56-2.94,6.56-6.56v-4.37ZM54.56,50.19v-2.19h2.19c1.21,0,2.19-.98,2.19-2.19s-.98-2.19-2.19-2.19h-4.37c-1.21,0-2.19.98-2.19,2.19v13.12c0,1.21.98,2.19,2.19,2.19s2.19-.98,2.19-2.19v-4.37h2.19c1.21,0,2.19-.98,2.19-2.19s-.98-2.19-2.19-2.19h-2.19ZM78.24,27.04l-7.09-7.09c-.4-.4-.83-.74-1.28-1.05v9.42h9.42c-.31-.46-.66-.89-1.05-1.28h0ZM80.75,32.69h-13.07s-.06-.02-.09-.02c2.69,1.99,4.46,5.17,4.46,8.76v21.87c0,6.03-4.9,10.93-10.93,10.93h-23.65c.91,2.54,3.31,4.37,6.16,4.37h30.61c3.62,0,6.56-2.94,6.56-6.56v-38.83c0-.18-.04-.35-.05-.53ZM61.12,30.51c1.7,0,3.29.42,4.73,1.12-.2-.33-.35-.7-.35-1.12v-13.07c-.18-.01-.35-.05-.53-.05h-21.34c-3.62,0-6.56,2.94-6.56,6.56v6.56h24.05Z"/>
</svg>