<?xml version="1.0" encoding="UTF-8"?>
<svg id="Lager_1" data-name="Lager 1" xmlns="http://www.w3.org/2000/svg" viewBox="0 0 96 96">
  <defs>
    <style>
      .cls-1 {
        fill: #fff;
        fill-rule: evenodd;
      }

      .cls-2 {
        fill: #006fa2;
      }
    </style>
  </defs>
  <ellipse class="cls-2" cx="48" cy="48" rx="32.93" ry="48.53" transform="translate(-8.73 85.28) rotate(-78.32)"/>
  <path class="cls-1" d="M66.43,62.01c-1.18,3.59-5.8,5.38-9.11,5.08-4.51-.41-9.42-2.8-13.15-5.44-5.48-3.87-10.61-9.87-13.6-16.23-2.11-4.49-2.59-10.02.56-14.12,1.16-1.51,2.42-2.32,4.31-2.42,2.62-.13,2.99,1.37,3.89,3.71.67,1.75,1.56,3.53,2.06,5.34.94,3.38-2.33,3.52-2.75,6.28-.25,1.74,1.85,4.08,2.81,5.32,1.84,2.42,4.09,4.49,6.65,6.12,1.45.92,3.79,2.56,5.45,1.65,2.56-1.4,2.32-5.72,5.9-4.26,1.85.75,3.65,1.84,5.42,2.8,2.73,1.47,2.61,2.99,1.56,6.16-.78,2.37.78-2.37,0,0"/>
</svg>