<?xml version="1.0" encoding="UTF-8"?>
<svg xmlns="http://www.w3.org/2000/svg" xmlns:xlink="http://www.w3.org/1999/xlink" viewBox="0 0 1944.54 916.24">
  <defs>
    <style>
      .cls-1 {
        fill: url(#linear-gradient-8);
      }

      .cls-2 {
        fill: url(#linear-gradient-7);
      }

      .cls-3 {
        fill: url(#linear-gradient-5);
      }

      .cls-4 {
        fill: url(#linear-gradient-6);
      }

      .cls-5 {
        fill: url(#linear-gradient-9);
      }

      .cls-6 {
        fill: url(#linear-gradient-4);
      }

      .cls-7 {
        fill: url(#linear-gradient-3);
      }

      .cls-8 {
        fill: url(#linear-gradient-2);
      }

      .cls-9 {
        fill: url(#linear-gradient);
      }

      .cls-10 {
        fill: #fff;
        opacity: .1;
      }

      .cls-11 {
        fill: #3a3a3a;
      }

      .cls-12 {
        fill: url(#linear-gradient-43);
      }

      .cls-13 {
        fill: url(#linear-gradient-40);
      }

      .cls-14 {
        fill: url(#linear-gradient-41);
      }

      .cls-15 {
        fill: url(#linear-gradient-42);
      }

      .cls-16 {
        fill: url(#linear-gradient-49);
      }

      .cls-17 {
        fill: url(#linear-gradient-48);
      }

      .cls-18 {
        fill: url(#linear-gradient-45);
      }

      .cls-19 {
        fill: url(#linear-gradient-47);
      }

      .cls-20 {
        fill: url(#linear-gradient-44);
      }

      .cls-21 {
        fill: url(#linear-gradient-46);
      }

      .cls-22 {
        fill: url(#linear-gradient-10);
      }

      .cls-23 {
        fill: url(#linear-gradient-11);
      }

      .cls-24 {
        fill: url(#linear-gradient-12);
      }

      .cls-25 {
        fill: url(#linear-gradient-13);
      }

      .cls-26 {
        fill: url(#linear-gradient-19);
      }

      .cls-27 {
        fill: url(#linear-gradient-14);
      }

      .cls-28 {
        fill: url(#linear-gradient-21);
      }

      .cls-29 {
        fill: url(#linear-gradient-20);
      }

      .cls-30 {
        fill: url(#linear-gradient-22);
      }

      .cls-31 {
        fill: url(#linear-gradient-23);
      }

      .cls-32 {
        fill: url(#linear-gradient-28);
      }

      .cls-33 {
        fill: url(#linear-gradient-25);
      }

      .cls-34 {
        fill: url(#linear-gradient-32);
      }

      .cls-35 {
        fill: url(#linear-gradient-31);
      }

      .cls-36 {
        fill: url(#linear-gradient-33);
      }

      .cls-37 {
        fill: url(#linear-gradient-30);
      }

      .cls-38 {
        fill: url(#linear-gradient-15);
      }

      .cls-39 {
        fill: url(#linear-gradient-16);
      }

      .cls-40 {
        fill: url(#linear-gradient-17);
      }

      .cls-41 {
        fill: url(#linear-gradient-18);
      }

      .cls-42 {
        fill: url(#linear-gradient-35);
      }

      .cls-43 {
        fill: url(#linear-gradient-34);
      }

      .cls-44 {
        fill: url(#linear-gradient-36);
      }

      .cls-45 {
        fill: url(#linear-gradient-38);
      }

      .cls-46 {
        fill: url(#linear-gradient-27);
      }

      .cls-47 {
        fill: url(#linear-gradient-24);
      }

      .cls-48 {
        fill: url(#linear-gradient-26);
      }

      .cls-49 {
        fill: url(#linear-gradient-29);
      }

      .cls-50 {
        fill: url(#linear-gradient-37);
      }

      .cls-51 {
        fill: url(#linear-gradient-39);
      }

      .cls-52 {
        fill: url(#linear-gradient-57);
      }

      .cls-53 {
        fill: url(#linear-gradient-58);
      }

      .cls-54 {
        fill: url(#linear-gradient-59);
      }

      .cls-55 {
        fill: url(#linear-gradient-53);
      }

      .cls-56 {
        fill: url(#linear-gradient-54);
      }

      .cls-57 {
        fill: url(#linear-gradient-55);
      }

      .cls-58 {
        fill: url(#linear-gradient-56);
      }

      .cls-59 {
        fill: url(#linear-gradient-50);
      }

      .cls-60 {
        fill: url(#linear-gradient-51);
      }

      .cls-61 {
        fill: url(#linear-gradient-52);
      }

      .cls-62 {
        fill: url(#linear-gradient-67);
      }

      .cls-63 {
        fill: url(#linear-gradient-68);
      }

      .cls-64 {
        fill: url(#linear-gradient-69);
      }

      .cls-65 {
        fill: url(#linear-gradient-63);
      }

      .cls-66 {
        fill: url(#linear-gradient-64);
      }

      .cls-67 {
        fill: url(#linear-gradient-65);
      }

      .cls-68 {
        fill: url(#linear-gradient-66);
      }

      .cls-69 {
        fill: url(#linear-gradient-60);
      }

      .cls-70 {
        fill: url(#linear-gradient-61);
      }

      .cls-71 {
        fill: url(#linear-gradient-62);
      }

      .cls-72 {
        fill: url(#linear-gradient-78);
      }

      .cls-73 {
        fill: url(#linear-gradient-75);
      }

      .cls-74 {
        fill: url(#linear-gradient-72);
      }

      .cls-75 {
        fill: url(#linear-gradient-77);
      }

      .cls-76 {
        fill: url(#linear-gradient-74);
      }

      .cls-77 {
        fill: url(#linear-gradient-76);
      }

      .cls-78 {
        fill: url(#linear-gradient-71);
      }

      .cls-79 {
        fill: url(#linear-gradient-73);
      }

      .cls-80 {
        fill: url(#linear-gradient-70);
      }
    </style>
    <linearGradient id="linear-gradient" x1="859.43" y1="590.27" x2="859.43" y2="633.32" gradientUnits="userSpaceOnUse">
      <stop offset="0" stop-color="#4c9d00"/>
      <stop offset=".54" stop-color="#58bf00"/>
    </linearGradient>
    <linearGradient id="linear-gradient-2" x1="644.01" y1="459.6" x2="1033.61" y2="459.6" gradientUnits="userSpaceOnUse">
      <stop offset=".11" stop-color="#4c9d00"/>
      <stop offset=".47" stop-color="#58bf00"/>
    </linearGradient>
    <linearGradient id="linear-gradient-3" x1="644.02" y1="458.71" x2="1033.6" y2="458.71" xlink:href="#linear-gradient-2"/>
    <linearGradient id="linear-gradient-4" x1="644.02" y1="446.57" x2="1033.6" y2="446.57" xlink:href="#linear-gradient-2"/>
    <linearGradient id="linear-gradient-5" x1="644.01" y1="460.59" x2="1033.61" y2="460.59" xlink:href="#linear-gradient-2"/>
    <linearGradient id="linear-gradient-6" x1="644.01" y1="462.18" x2="1033.61" y2="462.18" xlink:href="#linear-gradient-2"/>
    <linearGradient id="linear-gradient-7" x1="644.02" y1="443.99" x2="1033.59" y2="443.99" xlink:href="#linear-gradient-2"/>
    <linearGradient id="linear-gradient-8" x1="644.02" y1="461.41" x2="1033.6" y2="461.41" xlink:href="#linear-gradient-2"/>
    <linearGradient id="linear-gradient-9" x1="644.31" y1="445.29" x2="956.31" y2="445.29" xlink:href="#linear-gradient-2"/>
    <linearGradient id="linear-gradient-10" x1="644.01" y1="463" x2="1033.61" y2="463" xlink:href="#linear-gradient-2"/>
    <linearGradient id="linear-gradient-11" x1="644.01" y1="457.81" x2="1033.61" y2="457.81" xlink:href="#linear-gradient-2"/>
    <linearGradient id="linear-gradient-12" x1="644.02" y1="453.65" x2="1033.6" y2="453.65" xlink:href="#linear-gradient-2"/>
    <linearGradient id="linear-gradient-13" x1="644" y1="452.46" x2="1033.62" y2="452.46" xlink:href="#linear-gradient-2"/>
    <linearGradient id="linear-gradient-14" x1="644.01" y1="450.23" x2="1033.61" y2="450.23" xlink:href="#linear-gradient-2"/>
    <linearGradient id="linear-gradient-15" x1="644.01" y1="447.76" x2="1033.61" y2="447.76" xlink:href="#linear-gradient-2"/>
    <linearGradient id="linear-gradient-16" x1="644.01" y1="454.71" x2="1033.6" y2="454.71" xlink:href="#linear-gradient-2"/>
    <linearGradient id="linear-gradient-17" x1="644.01" y1="455.71" x2="1033.61" y2="455.71" xlink:href="#linear-gradient-2"/>
    <linearGradient id="linear-gradient-18" x1="644.01" y1="464.44" x2="1033.61" y2="464.44" xlink:href="#linear-gradient-2"/>
    <linearGradient id="linear-gradient-19" x1="644.02" y1="466.32" x2="1033.6" y2="466.32" xlink:href="#linear-gradient-2"/>
    <linearGradient id="linear-gradient-20" x1="644.02" y1="441.41" x2="1033.59" y2="441.41" xlink:href="#linear-gradient-2"/>
    <linearGradient id="linear-gradient-21" x1="644.01" y1="466.82" x2="1033.61" y2="466.82" xlink:href="#linear-gradient-2"/>
    <linearGradient id="linear-gradient-22" x1="644.03" y1="438.66" x2="1033.58" y2="438.66" xlink:href="#linear-gradient-2"/>
    <linearGradient id="linear-gradient-23" x1="644.01" y1="465.07" x2="1033.6" y2="465.07" xlink:href="#linear-gradient-2"/>
    <linearGradient id="linear-gradient-24" x1="644.01" y1="465.77" x2="1033.61" y2="465.77" xlink:href="#linear-gradient-2"/>
    <linearGradient id="linear-gradient-25" x1="644.02" y1="451.35" x2="1033.6" y2="451.35" xlink:href="#linear-gradient-2"/>
    <linearGradient id="linear-gradient-26" x1="644" y1="442.7" x2="1033.62" y2="442.7" xlink:href="#linear-gradient-2"/>
    <linearGradient id="linear-gradient-27" x1="644.02" y1="437.33" x2="1033.59" y2="437.33" xlink:href="#linear-gradient-2"/>
    <linearGradient id="linear-gradient-28" x1="644.01" y1="463.78" x2="1033.61" y2="463.78" xlink:href="#linear-gradient-2"/>
    <linearGradient id="linear-gradient-29" x1="624.53" y1="299.64" x2="935.87" y2="414.97" xlink:href="#linear-gradient-2"/>
    <linearGradient id="linear-gradient-30" x1="671.09" y1="173.98" x2="982.42" y2="289.31" xlink:href="#linear-gradient-2"/>
    <linearGradient id="linear-gradient-31" x1="602.85" y1="358.17" x2="914.18" y2="473.51" xlink:href="#linear-gradient-2"/>
    <linearGradient id="linear-gradient-32" x1="869.58" y1="186.8" x2="1258.8" y2="186.8" gradientUnits="userSpaceOnUse">
      <stop offset=".14" stop-color="#005c94"/>
      <stop offset=".99" stop-color="#00abe9"/>
    </linearGradient>
    <linearGradient id="linear-gradient-33" x1="869.58" y1="194" x2="1258.79" y2="194" xlink:href="#linear-gradient-32"/>
    <linearGradient id="linear-gradient-34" x1="869.57" y1="195.84" x2="1258.8" y2="195.84" xlink:href="#linear-gradient-32"/>
    <linearGradient id="linear-gradient-35" x1="869.57" y1="196.75" x2="1258.8" y2="196.75" xlink:href="#linear-gradient-32"/>
    <linearGradient id="linear-gradient-36" x1="869.57" y1="198.65" x2="1258.8" y2="198.65" xlink:href="#linear-gradient-32"/>
    <linearGradient id="linear-gradient-37" x1="869.58" y1="197.63" x2="1258.79" y2="197.63" xlink:href="#linear-gradient-32"/>
    <linearGradient id="linear-gradient-38" x1="869.57" y1="193.14" x2="1258.8" y2="193.14" xlink:href="#linear-gradient-32"/>
    <linearGradient id="linear-gradient-39" x1="869.58" y1="188.28" x2="1258.8" y2="188.28" xlink:href="#linear-gradient-32"/>
    <linearGradient id="linear-gradient-40" x1="869.58" y1="189.05" x2="1258.79" y2="189.05" xlink:href="#linear-gradient-32"/>
    <linearGradient id="linear-gradient-41" x1="869.58" y1="187.54" x2="1258.79" y2="187.54" xlink:href="#linear-gradient-32"/>
    <linearGradient id="linear-gradient-42" x1="869.58" y1="191.46" x2="1258.8" y2="191.46" xlink:href="#linear-gradient-32"/>
    <linearGradient id="linear-gradient-43" x1="869.57" y1="192.28" x2="1258.8" y2="192.28" xlink:href="#linear-gradient-32"/>
    <linearGradient id="linear-gradient-44" x1="869.58" y1="189.85" x2="1258.79" y2="189.85" xlink:href="#linear-gradient-32"/>
    <linearGradient id="linear-gradient-45" x1="869.58" y1="190.64" x2="1258.79" y2="190.64" xlink:href="#linear-gradient-32"/>
    <linearGradient id="linear-gradient-46" x1="869.57" y1="194.91" x2="1258.8" y2="194.91" xlink:href="#linear-gradient-32"/>
    <linearGradient id="linear-gradient-47" x1="869.57" y1="209.69" x2="1258.8" y2="209.69" xlink:href="#linear-gradient-32"/>
    <linearGradient id="linear-gradient-48" x1="869.58" y1="208.81" x2="1258.79" y2="208.81" xlink:href="#linear-gradient-32"/>
    <linearGradient id="linear-gradient-49" x1="869.58" y1="207.88" x2="1258.79" y2="207.88" xlink:href="#linear-gradient-32"/>
    <linearGradient id="linear-gradient-50" x1="869.58" y1="211.03" x2="1258.79" y2="211.03" xlink:href="#linear-gradient-32"/>
    <linearGradient id="linear-gradient-51" x1="869.59" y1="214.21" x2="1258.79" y2="214.21" xlink:href="#linear-gradient-32"/>
    <linearGradient id="linear-gradient-52" x1="869.58" y1="211.94" x2="1258.79" y2="211.94" xlink:href="#linear-gradient-32"/>
    <linearGradient id="linear-gradient-53" x1="869.59" y1="213.31" x2="1258.79" y2="213.31" xlink:href="#linear-gradient-32"/>
    <linearGradient id="linear-gradient-54" x1="869.57" y1="203.6" x2="1258.8" y2="203.6" xlink:href="#linear-gradient-32"/>
    <linearGradient id="linear-gradient-55" x1="869.57" y1="206.63" x2="1258.8" y2="206.63" xlink:href="#linear-gradient-32"/>
    <linearGradient id="linear-gradient-56" x1="869.58" y1="201.55" x2="1258.79" y2="201.55" xlink:href="#linear-gradient-32"/>
    <linearGradient id="linear-gradient-57" x1="869.58" y1="200.54" x2="1258.8" y2="200.54" xlink:href="#linear-gradient-32"/>
    <linearGradient id="linear-gradient-58" x1="869.58" y1="202.51" x2="1258.79" y2="202.51" xlink:href="#linear-gradient-32"/>
    <linearGradient id="linear-gradient-59" x1="869.58" y1="205.72" x2="1258.79" y2="205.72" xlink:href="#linear-gradient-32"/>
    <linearGradient id="linear-gradient-60" x1="869.57" y1="204.51" x2="1258.8" y2="204.51" xlink:href="#linear-gradient-32"/>
    <linearGradient id="linear-gradient-61" x1="869.57" y1="199.55" x2="1258.8" y2="199.55" xlink:href="#linear-gradient-32"/>
    <linearGradient id="linear-gradient-62" x1="869.58" y1="181.84" x2="1258.8" y2="181.84" xlink:href="#linear-gradient-32"/>
    <linearGradient id="linear-gradient-63" x1="869.58" y1="179.05" x2="1258.8" y2="179.05" xlink:href="#linear-gradient-32"/>
    <linearGradient id="linear-gradient-64" x1="869.58" y1="183.51" x2="1258.79" y2="183.51" xlink:href="#linear-gradient-32"/>
    <linearGradient id="linear-gradient-65" x1="869.58" y1="184.79" x2="1258.8" y2="184.79" xlink:href="#linear-gradient-32"/>
    <linearGradient id="linear-gradient-66" x1="869.58" y1="184.14" x2="1258.79" y2="184.14" xlink:href="#linear-gradient-32"/>
    <linearGradient id="linear-gradient-67" x1="869.58" y1="182.33" x2="1258.79" y2="182.33" xlink:href="#linear-gradient-32"/>
    <linearGradient id="linear-gradient-68" x1="869.58" y1="182.93" x2="1258.79" y2="182.93" xlink:href="#linear-gradient-32"/>
    <linearGradient id="linear-gradient-69" x1="869.58" y1="180.33" x2="1258.8" y2="180.33" xlink:href="#linear-gradient-32"/>
    <linearGradient id="linear-gradient-70" x1="869.58" y1="179.47" x2="1258.79" y2="179.47" xlink:href="#linear-gradient-32"/>
    <linearGradient id="linear-gradient-71" x1="869.58" y1="186.14" x2="1258.79" y2="186.14" xlink:href="#linear-gradient-32"/>
    <linearGradient id="linear-gradient-72" x1="869.58" y1="181.29" x2="1258.79" y2="181.29" xlink:href="#linear-gradient-32"/>
    <linearGradient id="linear-gradient-73" x1="869.58" y1="185.44" x2="1258.8" y2="185.44" xlink:href="#linear-gradient-32"/>
    <linearGradient id="linear-gradient-74" x1="869.58" y1="179.88" x2="1258.79" y2="179.88" xlink:href="#linear-gradient-32"/>
    <linearGradient id="linear-gradient-75" x1="869.58" y1="180.81" x2="1258.8" y2="180.81" xlink:href="#linear-gradient-32"/>
    <linearGradient id="linear-gradient-76" x1="1010.85" y1="291.26" x2="1313.72" y2="291.26" gradientUnits="userSpaceOnUse">
      <stop offset="0" stop-color="#005c94"/>
      <stop offset=".88" stop-color="#00abe9"/>
    </linearGradient>
    <linearGradient id="linear-gradient-77" x1="1010.85" y1="416.44" x2="1313.72" y2="416.44" xlink:href="#linear-gradient-76"/>
    <linearGradient id="linear-gradient-78" x1="1010.85" y1="199" x2="1313.72" y2="199" xlink:href="#linear-gradient-76"/>
  </defs>
  <g id="Energipartner">
    <path class="cls-11" d="M151.53,749.19v-152.12h123.04v25.53h-82.33v37.35h75.38v23.48h-75.38v40.27h83.89v25.49h-124.59Z"/>
    <path class="cls-11" d="M381.7,749.19v-74.5c0-4.6-.42-8.17-1.23-10.72-.82-2.54-2.13-4.37-3.91-5.47-1.79-1.14-4.05-1.79-6.82-2.01-2.77-.23-6.08-.34-9.95-.34-3.42,0-6.5.08-9.16.19-2.7.19-5.02.34-6.95.46-2.22.15-4.18.34-5.81.46v91.94h-37.36v-109.61c4.64-.88,9.94-1.63,15.88-2.24,5.22-.61,11.46-1.14,18.67-1.67,7.26-.53,15.48-.8,24.73-.8,9.99,0,18.71.34,26.18,1.03,7.47.69,13.66,2.35,18.56,5.05,4.92,2.66,8.59,6.65,10.96,11.93,2.39,5.32,3.59,12.58,3.59,21.81v74.5h-37.37Z"/>
    <path class="cls-11" d="M481.24,702.23c0,7.3.15,12.92.46,16.87.28,3.95,1.23,6.91,2.79,8.85,1.58,1.94,3.99,3.11,7.28,3.46,3.27.38,7.98.57,14.09.57,8.49.15,16.19.11,23.04-.11,6.84-.23,12.75-.5,17.65-.8,5.83-.42,10.98-.87,15.44-1.33v17.44c-4.61,1.06-9.92,1.86-15.88,2.47-5.22.72-11.47,1.33-18.79,1.79-7.31.46-15.58.68-24.83.68-13.58,0-24.35-.68-32.33-2.01-7.98-1.37-14.02-4.06-18.1-8.17-4.12-4.11-6.73-9.92-7.83-17.44-1.14-7.52-1.69-17.55-1.69-30.13s.7-23.36,2.13-31.19c1.41-7.83,4.33-13.83,8.74-18.01,4.39-4.14,10.64-6.92,18.79-8.28,8.11-1.33,18.88-2.01,32.31-2.01s24.18.68,32.33,2.01c8.11,1.37,14.34,4.14,18.67,8.28,4.31,4.18,7.2,10.18,8.61,18.01,1.42,7.83,2.13,18.23,2.13,31.19v7.86h-85.01ZM527.55,684.11c0-7.29-.19-12.99-.57-17.02-.36-4.03-1.33-6.95-2.89-8.81-1.59-1.86-3.9-2.96-6.93-3.27-3.06-.3-7.29-.46-12.65-.46s-9.57.15-12.63.46c-3.06.3-5.37,1.41-6.95,3.27-1.56,1.86-2.57,4.79-3.02,8.81-.44,4.03-.67,9.73-.67,17.02h46.31Z"/>
    <path class="cls-11" d="M670.71,657.02c-2.53-.27-5.59-.49-9.18-.69-3.55-.11-7.6-.19-12.06-.19-3.44,0-6.5.08-9.18.19-2.7.19-5,.34-6.93.46-2.24.15-4.25.34-6.04.46v91.94h-37.37v-109.61c3.42-.88,7.37-1.63,11.85-2.24,3.87-.61,8.55-1.14,13.98-1.67,5.45-.53,11.61-.8,18.46-.8s13.01.27,18.46.8c5.43.53,10.1,1.06,13.98,1.67,4.46.61,8.39,1.37,11.85,2.24v18.35c-2.39-.3-5.01-.61-7.84-.91Z"/>
    <path class="cls-11" d="M813.9,762.6c0,9.42-1.16,16.79-3.48,22.19-2.32,5.36-5.81,9.38-10.5,12.04-4.69,2.7-10.64,4.37-17.78,5.05-7.16.68-15.67.99-25.51.99-8.96,0-16.92-.19-23.93-.65-7.01-.46-12.99-1.06-17.89-1.79-5.81-.76-10.96-1.63-15.44-2.7v-18.58c4.33.46,9.33.84,14.99,1.14,4.79.27,10.45.57,17,.76,6.57.23,13.87.27,21.94.11,4.9,0,8.85-.19,11.85-.57,2.98-.34,5.32-1.14,7.03-2.32,1.73-1.22,2.89-3.04,3.48-5.51.59-2.43.89-5.85.89-10.18v-17.89c-1.78.34-3.89.53-6.27.69-2.07.15-4.5.26-7.27.34-2.75.08-5.93.11-9.5.11-13.12,0-23.69-.53-31.65-1.56-7.98-1.06-14.13-3.46-18.46-7.18-4.31-3.72-7.2-9.2-8.62-16.45-1.41-7.22-2.11-16.95-2.11-29.18,0-12.84.89-22.99,2.68-30.55,1.79-7.52,4.96-13.22,9.5-17.1,4.56-3.88,10.79-6.35,18.69-7.37,7.9-1.06,17.9-1.59,29.98-1.59,9.4,0,17.78.27,25.17.8,7.39.53,13.68,1.06,18.9,1.67,6.1.61,11.55,1.37,16.34,2.24v123.01ZM776.53,657.25c-1.65-.11-3.57-.3-5.81-.46-1.96-.11-4.3-.26-7.05-.46-2.77-.11-5.87-.19-9.29-.19-5.37,0-9.57.19-12.63.57-3.06.34-5.37,1.6-6.94,3.69-1.58,2.05-2.56,5.47-3.02,10.18-.45,4.67-.68,11.28-.68,19.79v2.01c0,8.05.15,14.21.45,18.58.31,4.29,1.22,7.45,2.79,9.5,1.56,2.01,3.87,3.15,6.93,3.46,3.06.3,7.43.46,13.09.46,3.42,0,6.52-.04,9.29-.11,2.75-.08,5.09-.19,7.05-.34,2.24-.15,4.16-.3,5.81-.46v-66.22Z"/>
    <rect class="cls-9" x="840.46" y="587" width="37.95" height="31.57"/>
    <rect class="cls-11" x="840.75" y="637.57" width="37.36" height="111.62"/>
    <path class="cls-11" d="M1024.62,694.36c0,12.58-.57,22.61-1.67,30.13-1.14,7.52-3.74,13.33-7.83,17.44-4.12,4.1-10.2,6.8-18.25,8.17-8.04,1.33-19,2.01-32.86,2.01-7.16,0-12.77-.23-16.8-.68-2.37-.15-4.48-.38-6.27-.68v49.24h-37.35v-160.4c4.62-.88,9.99-1.63,16.11-2.24,5.21-.61,11.55-1.14,19-1.67,7.46-.53,15.9-.8,25.3-.8,12.95,0,23.44.68,31.42,2.01,7.98,1.37,14.13,4.14,18.46,8.28,4.31,4.18,7.18,10.18,8.61,18.01,1.42,7.83,2.13,18.23,2.13,31.19ZM985.92,693.26c0-9.23-.19-16.41-.57-21.47-.36-5.05-1.31-8.78-2.79-11.09-1.48-2.28-3.8-3.65-6.93-3.99-3.14-.38-7.39-.57-12.77-.57-3.42,0-6.48.08-9.16.19-2.7.19-5,.34-6.93.46-2.24.15-4.18.34-5.83.46v72.72c1.65.15,3.59.3,5.83.46,1.94.15,4.24.23,6.93.23h9.16c5.68,0,10.07-.19,13.2-.57,3.13-.38,5.41-1.67,6.82-3.91,1.42-2.24,2.28-5.74,2.58-10.52.3-4.75.46-11.55.46-20.36v-2.01Z"/>
    <path class="cls-11" d="M1166.9,747.17c-4.79,1.06-10.24,1.86-16.34,2.47-5.22.72-11.53,1.33-18.92,1.79-7.37.46-15.77.68-25.15.68-8.05,0-15.77-.19-23.15-.57-7.37-.38-13.89-1.71-19.47-4.03-5.58-2.32-10.03-5.93-13.3-10.83-3.29-4.94-4.92-11.93-4.92-21.05,0-8.51,1.06-15.12,3.23-19.79,2.17-4.71,5.22-8.09,9.19-10.18,3.93-2.09,8.72-3.3,14.3-3.68,5.58-.38,11.81-.57,18.67-.57h38.49v-6.72c0-4.6-.34-8.28-1.03-10.94-.67-2.66-1.88-4.67-3.68-5.93-1.79-1.25-4.18-2.09-7.16-2.47-2.98-.34-6.78-.57-11.4-.57-8.05-.15-15.37-.11-21.94.15-6.55.19-12.21.46-17,.76-5.66.46-10.64.91-14.97,1.33v-17.44c4.46-.88,9.63-1.63,15.42-2.24,4.92-.61,10.89-1.14,17.9-1.67,7.01-.53,14.99-.8,23.95-.8s17.44.34,24.6,1.03c7.16.69,13.15,2.35,18.01,5.05,4.85,2.66,8.51,6.65,10.96,11.93,2.45,5.32,3.7,12.58,3.7,21.81v72.49ZM1129.53,699.76h-26.63c-3.57,0-6.56.08-8.95.23-2.38.15-4.33.76-5.81,1.79-1.5,1.03-2.53,2.62-3.14,4.71-.61,2.09-.89,5.13-.89,9.16s.42,7.37,1.24,9.61c.82,2.24,2.15,3.88,4.03,4.94,1.86,1.03,4.2,1.64,7.05,1.79,2.81.15,6.25.23,10.28.23,3.59,0,6.76-.04,9.52-.11,2.75-.08,5.18-.19,7.28-.34,2.24-.15,4.23-.38,6.04-.68v-31.3Z"/>
    <path class="cls-11" d="M1273.81,657.02c-2.53-.27-5.58-.49-9.18-.69-3.57-.11-7.62-.19-12.06-.19-3.44,0-6.5.08-9.17.19-2.7.19-5.02.34-6.95.46-2.22.15-4.25.34-6.04.46v91.94h-37.35v-109.61c3.42-.88,7.37-1.63,11.85-2.24,3.88-.61,8.53-1.14,13.98-1.67,5.43-.53,11.59-.8,18.45-.8s13.03.27,18.46.8c5.45.53,10.11,1.06,13.98,1.67,4.48.61,8.42,1.37,11.85,2.24v18.35c-2.37-.3-5-.61-7.82-.91Z"/>
    <path class="cls-11" d="M1385.65,749.64c-3.72.72-8.19,1.33-13.41,1.79-5.22.46-11.19.68-17.9.68-8.05,0-14.8-.68-20.25-2.01-5.43-1.37-9.78-3.57-12.97-6.72-3.21-3.12-5.53-7.26-6.93-12.39-1.43-5.16-2.11-11.47-2.11-18.92v-53.04h-22.38v-21.46h22.38v-38.03h37.12v38.03h41.14v21.46h-41.14v53.04c0,4.03.13,7.26.46,9.73.28,2.47,1.1,4.37,2.45,5.7,1.35,1.37,3.38,2.2,6.15,2.58,2.77.38,6.69.57,11.74.57,4.16,0,7.9-.08,11.19-.23,3.28-.15,6.1-.38,8.49-.69,2.7-.3,5.15-.61,7.39-.87v18.31c-3.27,1.06-7.09,1.86-11.42,2.47Z"/>
    <path class="cls-11" d="M1496.4,749.19v-74.5c0-4.6-.42-8.17-1.24-10.72-.82-2.54-2.12-4.37-3.91-5.47-1.78-1.14-4.06-1.79-6.84-2.01-2.75-.23-6.08-.34-9.95-.34-3.42,0-6.48.08-9.16.19-2.7.19-5.01.34-6.93.46-2.24.15-4.2.34-5.83.46v91.94h-37.35v-109.61c4.62-.88,9.92-1.63,15.86-2.24,5.22-.61,11.46-1.14,18.69-1.67,7.24-.53,15.46-.8,24.71-.8,9.99,0,18.71.34,26.17,1.03,7.47.69,13.66,2.35,18.58,5.05,4.92,2.66,8.57,6.65,10.96,11.93,2.37,5.32,3.59,12.58,3.59,21.81v74.5h-37.37Z"/>
    <path class="cls-11" d="M1595.92,702.23c0,7.3.15,12.92.46,16.87.3,3.95,1.24,6.91,2.81,8.85,1.56,1.94,3.99,3.11,7.26,3.46,3.29.38,7.98.57,14.09.57,8.51.15,16.19.11,23.04-.11,6.86-.23,12.75-.5,17.66-.8,5.83-.42,10.98-.87,15.45-1.33v17.44c-4.63,1.06-9.94,1.86-15.88,2.47-5.22.72-11.49,1.33-18.79,1.79-7.31.46-15.59.68-24.83.68-13.58,0-24.37-.68-32.33-2.01-7.98-1.37-14.02-4.06-18.12-8.17-4.12-4.11-6.73-9.92-7.83-17.44-1.12-7.52-1.67-17.55-1.67-30.13s.68-23.36,2.11-31.19c1.42-7.83,4.33-13.83,8.74-18.01,4.39-4.14,10.66-6.92,18.79-8.28,8.11-1.33,18.9-2.01,32.31-2.01s24.2.68,32.33,2.01c8.13,1.37,14.34,4.14,18.67,8.28,4.33,4.18,7.2,10.18,8.62,18.01,1.41,7.83,2.13,18.23,2.13,31.19v7.86h-85.03ZM1642.23,684.11c0-7.29-.17-12.99-.55-17.02-.38-4.03-1.33-6.95-2.9-8.81-1.58-1.86-3.9-2.96-6.93-3.27-3.06-.3-7.28-.46-12.65-.46s-9.58.15-12.63.46c-3.06.3-5.38,1.41-6.93,3.27-1.58,1.86-2.57,4.79-3.02,8.81-.44,4.03-.68,9.73-.68,17.02h46.31Z"/>
    <path class="cls-11" d="M1785.4,657.02c-2.53-.27-5.59-.49-9.17-.69-3.57-.11-7.62-.19-12.08-.19-3.44,0-6.5.08-9.16.19-2.7.19-5.02.34-6.95.46-2.24.15-4.25.34-6.04.46v91.94h-37.34v-109.61c3.42-.88,7.37-1.63,11.85-2.24,3.87-.61,8.53-1.14,13.98-1.67,5.43-.53,11.59-.8,18.44-.8s13.03.27,18.46.8c5.45.53,10.11,1.06,13.98,1.67,4.48.61,8.41,1.37,11.85,2.24v18.35c-2.39-.3-5.01-.61-7.83-.91Z"/>
  </g>
  <g id="Logo_Layer" data-name="Logo Layer">
    <g>
      <g>
        <path class="cls-8" d="M926.47,459.52c.56.06,1.12.12,1.68.18-.56-.06-1.12-.12-1.68-.18Z"/>
        <path class="cls-7" d="M917.78,458.58c.78.09,1.57.17,2.35.26-.79-.09-1.57-.17-2.35-.26Z"/>
        <path class="cls-6" d="M834.1,446.45c.41.08.83.15,1.25.23-.41-.08-.83-.15-1.25-.23Z"/>
        <path class="cls-3" d="M936.31,460.51c.52.05,1.05.1,1.57.15-.52-.05-1.05-.1-1.57-.15Z"/>
        <path class="cls-4" d="M953.32,462.07c.83.07,1.66.15,2.5.22-.84-.07-1.67-.14-2.5-.22Z"/>
        <path class="cls-2" d="M821.09,443.95c.14.03.27.06.41.08-.14-.03-.27-.06-.41-.08Z"/>
        <path class="cls-1" d="M944.59,461.29c.86.08,1.73.16,2.59.24-.87-.08-1.73-.16-2.59-.24Z"/>
        <path class="cls-5" d="M827.92,445.29s.03,0,.04,0c-.01,0-.03,0-.04,0Z"/>
        <path class="cls-22" d="M964.3,462.99s.07,0,.1,0c-.03,0-.07,0-.1,0Z"/>
        <path class="cls-23" d="M909.88,457.69c.67.08,1.34.15,2.01.23-.67-.08-1.34-.15-2.01-.23Z"/>
        <path class="cls-24" d="M877.98,453.59c.28.04.57.08.85.12-.28-.04-.57-.08-.85-.12Z"/>
        <path class="cls-25" d="M869.72,452.39c.34.05.67.1,1.02.15-.34-.05-.68-.1-1.02-.15Z"/>
        <path class="cls-27" d="M855.26,450.13c.42.07.84.14,1.26.2-.42-.07-.85-.14-1.26-.2Z"/>
        <path class="cls-38" d="M840.69,447.65c.41.07.81.15,1.23.22-.41-.07-.82-.15-1.23-.22Z"/>
        <path class="cls-39" d="M885.16,454.58c.65.09,1.3.18,1.95.26-.65-.09-1.31-.17-1.95-.26Z"/>
        <path class="cls-40" d="M892.77,455.59c.63.08,1.25.16,1.88.24-.63-.08-1.25-.16-1.88-.24Z"/>
        <path class="cls-41" d="M982.2,464.33c.98.07,1.97.14,2.96.21-.99-.07-1.98-.14-2.96-.21Z"/>
        <path class="cls-26" d="M1013,466.24c1.05.06,2.11.11,3.17.17-1.06-.06-2.12-.11-3.17-.17Z"/>
        <path class="cls-29" d="M808.6,441.34c.21.04.42.09.63.13-.21-.05-.42-.09-.63-.13Z"/>
        <path class="cls-28" d="M1023.02,466.75c.99.05,1.97.1,2.97.14-.99-.05-1.98-.1-2.97-.14Z"/>
        <path class="cls-30" d="M796.34,438.58c.23.05.45.11.68.16-.23-.05-.46-.11-.68-.16Z"/>
        <path class="cls-31" d="M992.12,465c.74.05,1.47.1,2.21.14-.74-.05-1.47-.1-2.21-.14Z"/>
        <path class="cls-47" d="M1003.53,465.71c.74.04,1.49.08,2.23.13-.74-.04-1.49-.08-2.23-.13Z"/>
        <path class="cls-33" d="M862.1,451.22c.55.09,1.11.17,1.67.26-.56-.09-1.11-.17-1.67-.26Z"/>
        <path class="cls-48" d="M814.45,442.59c.36.08.72.15,1.08.22-.36-.07-.72-.15-1.08-.22Z"/>
        <path class="cls-46" d="M790.69,437.24c.24.06.49.12.73.18-.24-.06-.49-.12-.73-.18Z"/>
        <path class="cls-32" d="M973.16,463.68c.87.07,1.74.13,2.61.19-.87-.06-1.75-.13-2.61-.19Z"/>
        <path class="cls-10" d="M856.53,450.34c1.84.3,3.7.59,5.57.89-1.87-.29-3.73-.59-5.57-.89Z"/>
        <path class="cls-10" d="M791.42,437.42c1.62.39,3.26.78,4.92,1.17-1.66-.39-3.3-.78-4.92-1.17Z"/>
        <path class="cls-10" d="M779.88,434.52c3.51.91,7.12,1.82,10.82,2.71-3.7-.9-7.3-1.8-10.82-2.71Z"/>
        <path class="cls-10" d="M815.53,442.81c1.84.38,3.69.76,5.56,1.14-1.87-.38-3.73-.75-5.56-1.14Z"/>
        <path class="cls-10" d="M821.5,444.03c2.12.42,4.26.84,6.43,1.26-2.17-.42-4.31-.84-6.43-1.26Z"/>
        <path class="cls-10" d="M809.22,441.48c1.72.37,3.46.74,5.22,1.11-1.76-.37-3.5-.74-5.22-1.11Z"/>
        <path class="cls-10" d="M797.03,438.74c3.76.88,7.62,1.74,11.57,2.6-3.95-.86-7.8-1.72-11.57-2.6Z"/>
        <path class="cls-10" d="M841.91,447.87c4.35.77,8.8,1.52,13.35,2.26-4.54-.74-8.99-1.5-13.35-2.26Z"/>
        <path class="cls-10" d="M827.96,445.3c2.02.39,4.07.77,6.14,1.16-2.07-.38-4.12-.77-6.14-1.16Z"/>
        <path class="cls-10" d="M835.35,446.68c1.76.32,3.54.65,5.34.97-1.8-.32-3.58-.64-5.34-.97Z"/>
        <path class="cls-10" d="M863.77,451.48c1.97.3,3.95.61,5.95.9-2-.3-3.99-.6-5.95-.9Z"/>
        <path class="cls-10" d="M985.16,464.54c2.3.16,4.62.31,6.96.46-2.33-.15-4.65-.3-6.96-.46Z"/>
        <path class="cls-10" d="M994.33,465.14c3.04.19,6.11.38,9.2.56-3.09-.18-6.16-.37-9.2-.56Z"/>
        <path class="cls-10" d="M964.4,463c2.89.23,5.82.46,8.76.68-2.94-.22-5.87-.45-8.76-.68Z"/>
        <path class="cls-10" d="M1016.17,466.4c2.27.12,4.55.23,6.84.35-2.29-.11-4.58-.23-6.84-.35Z"/>
        <path class="cls-10" d="M1005.76,465.83c2.4.14,4.81.27,7.25.4-2.43-.13-4.85-.27-7.25-.4Z"/>
        <path class="cls-10" d="M1025.98,466.89c3.24.15,6.49.3,9.78.45-3.29-.14-6.55-.29-9.78-.45Z"/>
        <path class="cls-10" d="M955.82,462.29c2.81.24,5.63.47,8.48.7-2.86-.23-5.68-.46-8.48-.7Z"/>
        <path class="cls-10" d="M975.78,463.87c2.13.16,4.27.31,6.42.46-2.15-.15-4.29-.3-6.42-.46Z"/>
        <path class="cls-10" d="M887.11,454.85c1.87.25,3.76.5,5.66.75-1.9-.25-3.79-.49-5.66-.75Z"/>
        <path class="cls-10" d="M894.65,455.83c4.98.64,10.06,1.26,15.23,1.86-5.18-.6-10.25-1.22-15.23-1.86Z"/>
        <path class="cls-10" d="M878.83,453.71c2.09.29,4.2.59,6.32.87-2.13-.29-4.23-.58-6.32-.87Z"/>
        <path class="cls-10" d="M870.73,452.54c2.39.35,4.8.7,7.25,1.05-2.44-.35-4.86-.7-7.25-1.05Z"/>
        <path class="cls-10" d="M928.15,459.69c2.69.28,5.41.55,8.16.82-2.75-.27-5.46-.54-8.16-.82Z"/>
        <path class="cls-10" d="M947.18,461.53c2.03.18,4.08.37,6.14.54-2.06-.18-4.11-.36-6.14-.54Z"/>
        <path class="cls-10" d="M937.88,460.66c2.22.21,4.46.43,6.71.63-2.25-.21-4.49-.42-6.71-.63Z"/>
        <path class="cls-10" d="M911.89,457.92c1.95.22,3.91.44,5.89.66-1.98-.22-3.94-.44-5.89-.66Z"/>
        <path class="cls-10" d="M920.13,458.84c2.1.23,4.21.45,6.34.67-2.13-.22-4.24-.45-6.34-.67Z"/>
        <g>
          <path class="cls-49" d="M751.68,401.17c20.57,5.57,42.04,10.73,64.08,14.99,22.16,4.31,44.95,7.98,68.3,11.17,23.45,3.25,47.27,6.06,71.37,8.7,5.09.52,49.67,3.49,63.64,4.11l-39.86-64.96c-153.17-2.67-332.93-44.84-342.92-105.34-.37-2.26-32.96,91.16,115.39,131.33Z"/>
          <path class="cls-37" d="M961.75,346.72l-36.16-58.93c-85.14-.91-139.68-12.29-174.62-26.25,4.1-3.05,8.99-6.61,10.81-7.95,7.87-5.87,16.93-11.83,27.12-17.84,2.12-1.23,23.28-12,25.39-12.91,11.46-5.28,22.58-9.93,33.7-14.14,5.52-2.07,15.29-5.31,24.02-8.14l-4.07-6.66c-5.58,1.58-11.18,3.22-16.79,4.92-13.44,4.06-27.06,8.45-40.83,13.21-7.74,2.68-15.66,5.49-23.47,8.59-7.83,3.09-15.76,6.43-23.67,9.94-7.94,3.67-15.98,7.55-23.92,11.66-4.41,2.36-8.75,4.72-13.07,7.27-14.52-8.61-23.42-17.35-28.87-24.66,3.71-3.58,7.94-7.23,12.79-10.14,28.57-17.09,88.24-38.55,137.11-54.64,0,0,0,0,.01,0l-3.48-5.68s-.01,0-.02,0c-11.06,2.84-20.23,5.21-24.94,6.4-13.68,3.41-27.58,7.21-41.73,11.5-8.54,2.55-17.17,5.31-25.91,8.24-6.36,2.18-12.85,4.44-19.32,6.95-6.45,2.51-13.05,5.1-19.5,8.02-6.58,2.88-22.6,10.91-23.62,11.46,0,0,0-.01,0-.02-.44-1.78-.68-3.48-.76-5.27-.05-1.71,0-3.47.28-5.23,0-26.07,39.56-49.4,91.61-65.8,4.21-1.4,8.49-2.76,12.57-4.01,3.46-1.04,6.78-1.95,10.12-2.9,3.44-.94,11.26-2.76,19.55-4.62l-3.69-6.26c-96.33,20.93-144.23,54.08-155.75,62.97-41.91,32.34-81.77,153.53,299.12,170.91Z"/>
          <path class="cls-35" d="M1035.77,467.34c-3.29-.14-6.55-.29-9.78-.45-.99-.05-1.98-.1-2.97-.14-2.29-.11-4.58-.23-6.84-.35-1.06-.06-2.12-.11-3.17-.17-2.43-.13-4.85-.27-7.25-.4-.74-.04-1.49-.08-2.23-.13-3.09-.18-6.16-.37-9.2-.56-.74-.05-1.47-.1-2.21-.14-2.33-.15-4.65-.3-6.96-.46-.99-.07-1.98-.14-2.96-.21-2.15-.15-4.29-.3-6.42-.46-.87-.06-1.75-.13-2.61-.19-2.94-.22-5.87-.45-8.76-.68-.03,0-.07,0-.1,0-2.86-.23-5.68-.46-8.48-.7-.84-.07-1.67-.14-2.5-.22-2.06-.18-4.11-.36-6.14-.54-.87-.08-1.73-.16-2.59-.24-2.25-.21-4.49-.42-6.71-.63-.52-.05-1.05-.1-1.57-.15-2.75-.27-5.46-.54-8.16-.82-.56-.06-1.12-.12-1.68-.18-2.13-.22-4.24-.45-6.34-.67-.79-.09-1.57-.17-2.35-.26-1.98-.22-3.94-.44-5.89-.66-.67-.08-1.34-.15-2.01-.23-5.18-.6-10.25-1.22-15.23-1.86-.63-.08-1.25-.16-1.88-.24-1.9-.25-3.79-.49-5.66-.75-.65-.09-1.31-.17-1.95-.26-2.13-.29-4.23-.58-6.32-.87-.28-.04-.57-.08-.85-.12-2.44-.35-4.85-.7-7.25-1.05-.34-.05-.68-.1-1.02-.15-2-.3-3.99-.6-5.95-.9-.56-.09-1.11-.17-1.67-.26-1.87-.29-3.73-.59-5.57-.89-.42-.07-.85-.14-1.26-.2-4.54-.74-8.99-1.5-13.35-2.26-.41-.07-.82-.15-1.23-.22-1.8-.32-3.58-.64-5.34-.97-.41-.08-.83-.15-1.25-.23-2.07-.38-4.12-.77-6.14-1.16-.01,0-.03,0-.04,0-2.17-.42-4.31-.84-6.43-1.26-.14-.03-.27-.06-.41-.08-1.87-.38-3.73-.75-5.56-1.14-.36-.07-.72-.15-1.08-.22-1.76-.37-3.5-.74-5.22-1.11-.21-.05-.42-.09-.63-.13-3.95-.86-7.8-1.72-11.57-2.6-.23-.05-.46-.11-.68-.16-1.66-.39-3.3-.78-4.92-1.17-.24-.06-.49-.12-.73-.18-3.7-.9-7.3-1.8-10.82-2.71-121.96-31.71-136.59-73.45-136.59-73.45.36,1.46-22.36,66.75,163.44,122.21,62.93,18.78,149.78,36.44,269.58,50.1l-40.53-66.04Z"/>
        </g>
      </g>
      <g>
        <path class="cls-34" d="M1021.56,187.09c-1.86-.2-3.72-.39-5.6-.59,1.88.19,3.74.39,5.6.59Z"/>
        <path class="cls-36" d="M1078.16,194.36c-1.57-.24-3.15-.48-4.74-.71,1.59.24,3.17.47,4.74.71Z"/>
        <path class="cls-43" d="M1089.81,196.2c-1.49-.24-2.98-.48-4.49-.72,1.51.24,3,.48,4.49.72Z"/>
        <path class="cls-42" d="M1094.66,197.01c-1-.17-2-.34-3.01-.5,1.01.17,2.01.33,3.01.5Z"/>
        <path class="cls-44" d="M1105.7,198.93c-1.04-.19-2.09-.38-3.15-.56,1.05.19,2.1.37,3.15.56Z"/>
        <path class="cls-50" d="M1099.92,197.9c-1.04-.18-2.08-.36-3.13-.54,1.05.18,2.09.36,3.13.54Z"/>
        <path class="cls-45" d="M1071.68,193.39c-1.18-.17-2.36-.34-3.55-.51,1.19.17,2.37.34,3.55.51Z"/>
        <path class="cls-51" d="M1035.07,188.6c-1.86-.22-3.72-.43-5.6-.64,1.88.21,3.75.43,5.6.64Z"/>
        <path class="cls-13" d="M1040.96,189.3c-1.37-.17-2.75-.33-4.13-.49,1.38.16,2.76.33,4.13.49Z"/>
        <path class="cls-14" d="M1028,187.79c-1.51-.17-3.03-.33-4.55-.5,1.53.16,3.04.33,4.55.5Z"/>
        <path class="cls-15" d="M1060.07,191.75c-1.45-.2-2.91-.39-4.38-.59,1.47.19,2.93.39,4.38.59Z"/>
        <path class="cls-12" d="M1066.14,192.6c-1.48-.21-2.97-.42-4.47-.62,1.5.21,2.99.41,4.47.62Z"/>
        <path class="cls-20" d="M1048.15,190.19c-1.77-.22-3.55-.44-5.34-.66,1.79.22,3.57.44,5.34.66Z"/>
        <path class="cls-18" d="M1053.72,190.9c-1.34-.18-2.69-.35-4.04-.52,1.35.17,2.7.35,4.04.52Z"/>
        <path class="cls-21" d="M1083.3,195.16c-1.05-.16-2.1-.33-3.16-.49,1.06.16,2.11.33,3.16.49Z"/>
        <path class="cls-19" d="M1157.2,209.84c-.4-.1-.79-.2-1.2-.3.4.1.8.2,1.2.3Z"/>
        <path class="cls-17" d="M1153.74,208.99c-.5-.12-1-.24-1.5-.36.5.12,1,.24,1.5.36Z"/>
        <path class="cls-16" d="M1149.97,208.08c-.56-.13-1.14-.27-1.7-.4.57.13,1.14.27,1.7.4Z"/>
        <path class="cls-59" d="M1162.61,211.2c-.44-.11-.89-.23-1.33-.34.44.11.89.23,1.33.34Z"/>
        <path class="cls-60" d="M1174.47,214.37c-.37-.1-.74-.21-1.12-.31.37.1.75.21,1.12.31Z"/>
        <path class="cls-61" d="M1166.06,212.1c-.41-.11-.81-.21-1.22-.32.41.11.81.21,1.22.32Z"/>
        <path class="cls-55" d="M1171.13,213.45c-.34-.09-.68-.18-1.02-.27.34.09.68.18,1.02.27Z"/>
        <path class="cls-56" d="M1130.87,203.83c-.71-.15-1.42-.3-2.13-.44.71.15,1.43.3,2.13.44Z"/>
        <path class="cls-57" d="M1144.55,206.83c-.57-.13-1.14-.26-1.71-.39.57.13,1.14.26,1.71.39Z"/>
        <path class="cls-58" d="M1120.78,201.77c-.76-.15-1.52-.3-2.28-.45.76.15,1.52.3,2.28.45Z"/>
        <path class="cls-52" d="M1116.37,200.91c-1.3-.25-2.6-.5-3.92-.75,1.32.25,2.62.5,3.92.75Z"/>
        <path class="cls-53" d="M1125.97,202.81c-1-.2-2.01-.41-3.02-.61,1.01.2,2.02.41,3.02.61Z"/>
        <path class="cls-54" d="M1140.6,205.93c-.64-.14-1.29-.29-1.94-.43.65.14,1.29.29,1.94.43Z"/>
        <path class="cls-69" d="M1135.09,204.73c-.67-.14-1.34-.29-2.01-.43.67.14,1.34.29,2.01.43Z"/>
        <path class="cls-70" d="M1110.39,199.79c-.84-.16-1.69-.31-2.54-.47.85.16,1.69.31,2.54.47Z"/>
        <path class="cls-71" d="M964.78,182.07c-2.2-.16-4.43-.31-6.66-.46,2.23.15,4.46.3,6.66.46Z"/>
        <path class="cls-65" d="M916.15,179.22c-2.48-.12-4.97-.23-7.48-.34,2.51.11,5,.22,7.48.34Z"/>
        <path class="cls-66" d="M986.72,183.78c-2.12-.18-4.25-.35-6.4-.53,2.15.17,4.28.35,6.4.53Z"/>
        <path class="cls-67" d="M1001.35,185.07c-2.04-.19-4.1-.38-6.18-.56,2.07.19,4.13.37,6.18.56Z"/>
        <path class="cls-68" d="M993.44,184.35c-1.65-.15-3.31-.29-4.98-.43,1.67.14,3.33.29,4.98.43Z"/>
        <path class="cls-62" d="M971.65,182.58c-2.21-.17-4.42-.33-6.66-.49,2.24.16,4.45.32,6.66.49Z"/>
        <path class="cls-63" d="M978.95,183.14c-1.78-.14-3.57-.28-5.37-.42,1.8.14,3.59.28,5.37.42Z"/>
        <path class="cls-64" d="M940.39,180.49c-1.91-.11-3.82-.22-5.75-.33,1.93.11,3.84.22,5.75.33Z"/>
        <path class="cls-80" d="M924.35,179.62c-2.05-.1-4.11-.2-6.18-.3,2.07.1,4.13.2,6.18.3Z"/>
        <path class="cls-78" d="M1015.08,186.41c-1.83-.19-3.67-.37-5.52-.55,1.85.18,3.69.37,5.52.55Z"/>
        <path class="cls-74" d="M956.2,181.48c-1.93-.13-3.86-.25-5.81-.38,1.95.12,3.88.25,5.81.38Z"/>
        <path class="cls-79" d="M1007.65,185.67c-1.64-.16-3.28-.32-4.94-.47,1.66.16,3.3.31,4.94.47Z"/>
        <path class="cls-76" d="M932.86,180.07c-2.39-.13-4.79-.26-7.2-.38,2.42.12,4.82.25,7.2.38Z"/>
        <path class="cls-73" d="M949.13,181.02c-2.32-.15-4.65-.29-7-.43,2.35.14,4.68.28,7,.43Z"/>
        <path class="cls-10" d="M1138.66,205.5c-1.18-.26-2.37-.52-3.57-.78,1.2.26,2.39.52,3.57.78Z"/>
        <path class="cls-10" d="M934.65,180.17c-.59-.03-1.19-.07-1.78-.1.6.03,1.19.07,1.78.1Z"/>
        <path class="cls-10" d="M1122.96,202.2c-.72-.14-1.45-.29-2.17-.43.73.14,1.45.29,2.17.43Z"/>
        <path class="cls-10" d="M1142.84,206.44c-.74-.17-1.49-.34-2.24-.5.75.17,1.5.34,2.24.5Z"/>
        <path class="cls-10" d="M1128.74,203.38c-.92-.19-1.84-.38-2.76-.57.93.19,1.85.38,2.76.57Z"/>
        <path class="cls-10" d="M1133.08,204.29c-.73-.16-1.47-.31-2.21-.47.74.16,1.48.31,2.21.47Z"/>
        <path class="cls-10" d="M942.14,180.6c-.58-.03-1.16-.07-1.74-.1.58.03,1.16.07,1.74.1Z"/>
        <path class="cls-10" d="M1179.34,215.74h0c-1.6-.46-3.23-.92-4.87-1.37,1.64.46,3.27.91,4.87,1.37Z"/>
        <path class="cls-10" d="M1170.11,213.17c-1.33-.36-2.68-.72-4.04-1.08,1.36.36,2.71.72,4.04,1.08Z"/>
        <path class="cls-10" d="M1148.26,207.69c-1.23-.29-2.47-.57-3.71-.86,1.25.29,2.48.57,3.71.86Z"/>
        <path class="cls-10" d="M1173.35,214.06c-.74-.2-1.48-.41-2.22-.61.75.2,1.49.41,2.22.61Z"/>
        <path class="cls-10" d="M950.39,181.1c-.42-.03-.84-.05-1.26-.08.42.03.84.05,1.26.08Z"/>
        <path class="cls-10" d="M1164.85,211.78c-.74-.19-1.49-.39-2.23-.58.75.19,1.49.38,2.23.58Z"/>
        <path class="cls-10" d="M1161.28,210.86c-1.35-.34-2.71-.68-4.08-1.03,1.37.34,2.74.68,4.08,1.03Z"/>
        <path class="cls-10" d="M925.66,179.69c-.44-.02-.88-.04-1.31-.07.44.02.88.04,1.31.07Z"/>
        <path class="cls-10" d="M1152.24,208.63c-.75-.18-1.51-.36-2.27-.54.76.18,1.52.36,2.27.54Z"/>
        <path class="cls-10" d="M1156,209.54c-.75-.18-1.51-.37-2.27-.55.76.18,1.52.37,2.27.55Z"/>
        <path class="cls-10" d="M918.17,179.32c-.67-.03-1.35-.06-2.02-.1.68.03,1.35.06,2.02.1Z"/>
        <path class="cls-10" d="M1023.45,187.29c-.63-.07-1.26-.14-1.89-.2.63.07,1.26.14,1.89.2Z"/>
        <path class="cls-10" d="M1055.69,191.16c-.65-.09-1.31-.17-1.96-.26.66.09,1.31.17,1.96.26Z"/>
        <path class="cls-10" d="M995.18,184.51c-.58-.05-1.16-.1-1.74-.15.58.05,1.16.1,1.74.15Z"/>
        <path class="cls-10" d="M1049.68,190.38c-.51-.06-1.02-.13-1.53-.2.51.06,1.02.13,1.53.2Z"/>
        <path class="cls-10" d="M1068.13,192.88c-.66-.09-1.32-.19-1.99-.28.67.09,1.33.19,1.99.28Z"/>
        <path class="cls-10" d="M1061.67,191.97c-.53-.07-1.07-.15-1.61-.22.54.07,1.07.15,1.61.22Z"/>
        <path class="cls-10" d="M1002.71,185.2c-.45-.04-.9-.09-1.36-.13.46.04.91.09,1.36.13Z"/>
        <path class="cls-10" d="M1036.83,188.8c-.59-.07-1.17-.14-1.76-.21.59.07,1.17.14,1.76.21Z"/>
        <path class="cls-10" d="M1015.96,186.5c-.29-.03-.58-.06-.88-.09.29.03.58.06.88.09Z"/>
        <path class="cls-10" d="M1029.47,187.95c-.49-.05-.98-.11-1.46-.16.49.05.98.11,1.46.16Z"/>
        <path class="cls-10" d="M988.45,183.92c-.58-.05-1.15-.1-1.73-.15.58.05,1.15.1,1.73.15Z"/>
        <path class="cls-10" d="M1042.82,189.52c-.61-.08-1.23-.15-1.85-.22.62.07,1.24.15,1.85.22Z"/>
        <path class="cls-10" d="M1009.57,185.86c-.64-.06-1.27-.12-1.91-.19.64.06,1.28.12,1.91.19Z"/>
        <path class="cls-10" d="M1118.5,201.33c-.71-.14-1.42-.28-2.14-.41.72.14,1.43.28,2.14.41Z"/>
        <path class="cls-10" d="M964.99,182.09c-.07,0-.14,0-.21-.02.07,0,.14.01.21.02Z"/>
        <path class="cls-10" d="M1096.78,197.36c-.7-.12-1.41-.24-2.12-.36.71.12,1.42.24,2.12.36Z"/>
        <path class="cls-10" d="M1107.86,199.32c-.72-.13-1.44-.26-2.16-.39.72.13,1.44.26,2.16.39Z"/>
        <path class="cls-10" d="M1102.55,198.37c-.87-.15-1.75-.31-2.63-.46.88.15,1.76.31,2.63.46Z"/>
        <path class="cls-10" d="M958.11,181.61c-.64-.04-1.27-.09-1.91-.13.64.04,1.28.08,1.91.13Z"/>
        <path class="cls-10" d="M1112.44,200.17c-.68-.13-1.37-.25-2.05-.38.68.13,1.37.25,2.05.38Z"/>
        <path class="cls-10" d="M973.59,182.72c-.65-.05-1.29-.1-1.94-.15.65.05,1.29.1,1.94.15Z"/>
        <path class="cls-10" d="M1085.32,195.47c-.67-.11-1.35-.21-2.02-.32.68.11,1.35.21,2.02.32Z"/>
        <path class="cls-10" d="M980.32,183.25c-.45-.04-.91-.07-1.37-.11.46.04.91.07,1.37.11Z"/>
        <path class="cls-10" d="M1073.42,193.65c-.58-.09-1.16-.17-1.74-.25.58.08,1.17.17,1.74.25Z"/>
        <path class="cls-10" d="M1080.13,194.66c-.66-.1-1.31-.2-1.98-.3.66.1,1.32.2,1.98.3Z"/>
        <path class="cls-10" d="M1091.66,196.5c-.62-.1-1.23-.2-1.85-.31.62.1,1.23.2,1.85.31Z"/>
        <g>
          <path class="cls-77" d="M1192.75,245.06c-20.57-5.57-42.04-10.73-64.08-14.99-22.16-4.31-44.95-7.98-68.3-11.17-23.45-3.25-47.27-6.06-71.37-8.7-5.09-.52-49.67-3.49-63.64-4.11l39.86,64.96c153.17,2.67,332.93,44.84,342.92,105.34.37,2.26,32.96-91.16-115.39-131.33Z"/>
          <path class="cls-75" d="M982.68,299.5l36.16,58.93c85.14.91,139.68,12.29,174.62,26.25-4.1,3.05-8.99,6.61-10.81,7.95-7.87,5.87-16.93,11.83-27.11,17.84-2.12,1.23-23.28,12-25.39,12.91-11.46,5.28-22.58,9.93-33.7,14.14-5.52,2.07-15.29,5.31-24.02,8.14l4.07,6.66c5.58-1.58,11.18-3.22,16.79-4.92,13.44-4.06,27.06-8.45,40.83-13.21,7.74-2.68,15.66-5.49,23.47-8.59,7.83-3.09,15.76-6.43,23.67-9.94,7.94-3.67,15.98-7.55,23.92-11.66,4.41-2.36,8.75-4.72,13.07-7.27,14.52,8.61,23.41,17.35,28.87,24.66-3.71,3.59-7.94,7.23-12.79,10.14-28.57,17.09-88.24,38.55-137.11,54.64,0,0,0,0-.01,0l3.48,5.68s.01,0,.02,0c11.06-2.84,20.23-5.21,24.94-6.4,13.69-3.41,27.58-7.21,41.73-11.5,8.54-2.55,17.17-5.31,25.92-8.24,6.36-2.18,12.85-4.44,19.32-6.95,6.45-2.51,13.05-5.1,19.5-8.02,6.58-2.88,22.6-10.91,23.62-11.46,0,0,0,.01,0,.02.44,1.78.68,3.48.76,5.27.05,1.71,0,3.47-.28,5.23,0,26.07-39.56,49.4-91.61,65.8-4.22,1.4-8.49,2.76-12.57,4.01-3.46,1.04-6.78,1.95-10.12,2.9-3.44.94-11.26,2.76-19.55,4.62l3.69,6.26c96.33-20.93,144.23-54.08,155.75-62.97,41.91-32.34,81.77-153.53-299.12-170.91Z"/>
          <path class="cls-72" d="M932.86,180.07c.6.03,1.19.07,1.78.1,1.93.11,3.84.22,5.75.33.58.03,1.16.07,1.74.1,2.35.14,4.68.28,7,.43.42.03.84.05,1.26.08,1.95.12,3.88.25,5.81.38.64.04,1.28.08,1.91.13,2.23.15,4.46.3,6.66.46.07,0,.14.01.21.02,2.24.16,4.45.32,6.66.49.65.05,1.29.1,1.94.15,1.8.14,3.59.28,5.37.42.46.04.91.07,1.37.11,2.15.17,4.28.35,6.4.53.58.05,1.15.1,1.73.15,1.67.14,3.33.29,4.98.43.58.05,1.16.1,1.74.15,2.07.19,4.13.37,6.18.56.46.04.91.09,1.36.13,1.66.16,3.3.31,4.94.47.64.06,1.28.12,1.91.19,1.85.18,3.69.37,5.52.55.29.03.58.06.88.09,1.88.19,3.74.39,5.6.59.63.07,1.26.14,1.89.2,1.53.16,3.04.33,4.55.5.49.05.98.11,1.46.16,1.88.21,3.75.43,5.6.64.59.07,1.17.14,1.76.21,1.38.16,2.76.33,4.13.49.62.07,1.24.15,1.85.22,1.79.22,3.57.44,5.34.66.51.06,1.02.13,1.53.2,1.35.17,2.7.35,4.04.52.66.09,1.31.17,1.96.26,1.47.19,2.93.39,4.38.59.54.07,1.07.15,1.61.22,1.5.21,2.99.41,4.47.62.67.09,1.33.19,1.99.28,1.19.17,2.37.34,3.55.51.58.08,1.17.17,1.74.25,1.59.24,3.17.47,4.74.71.66.1,1.32.2,1.98.3,1.06.16,2.11.33,3.16.49.68.11,1.35.21,2.02.32,1.51.24,3,.48,4.49.72.62.1,1.23.2,1.85.31,1.01.17,2.01.33,3.01.5.71.12,1.42.24,2.12.36,1.05.18,2.09.36,3.13.54.88.15,1.76.31,2.63.46,1.05.19,2.1.37,3.15.56.72.13,1.44.26,2.16.39.85.16,1.69.31,2.54.47.68.13,1.37.25,2.05.38,1.32.25,2.62.5,3.92.75.72.14,1.43.28,2.14.41.76.15,1.52.3,2.28.45.73.14,1.45.29,2.17.43,1.01.2,2.02.41,3.02.61.93.19,1.85.38,2.76.57.71.15,1.43.3,2.13.44.74.16,1.48.31,2.21.47.67.14,1.34.29,2.01.43,1.2.26,2.39.52,3.57.78.65.14,1.29.29,1.94.43.75.17,1.5.34,2.24.5.57.13,1.14.26,1.71.39,1.25.29,2.48.57,3.71.86.57.13,1.14.27,1.7.4.76.18,1.52.36,2.27.54.5.12,1,.24,1.5.36.76.18,1.52.37,2.27.55.4.1.8.2,1.2.3,1.37.34,2.74.68,4.08,1.03.44.11.89.23,1.33.34.75.19,1.49.38,2.23.58.41.11.81.21,1.22.32,1.36.36,2.71.72,4.04,1.08.34.09.68.18,1.02.27.75.2,1.49.41,2.22.61.37.1.75.21,1.12.31,1.64.46,3.27.91,4.87,1.37,108.38,31.1,121.81,69.41,121.81,69.41-.35-1.39,15.21-61.4-140.27-114.58-64.12-21.93-157.32-42.71-292.74-57.73l40.53,66.04c2.51.11,5,.22,7.48.34.68.03,1.35.06,2.02.1,2.07.1,4.13.2,6.18.3.44.02.88.04,1.31.07,2.42.12,4.82.25,7.2.38Z"/>
        </g>
      </g>
    </g>
  </g>
  <g id="Logo_Effect_Layer" data-name="Logo Effect Layer">
    <g>
      <path class="cls-10" d="M815.76,416.16c22.16,4.31,44.95,7.98,68.3,11.17,23.45,3.25,47.27,6.06,71.37,8.7,5.09.52,49.67,3.49,63.64,4.11l-39.86-64.96c-90.4-1.58-190.06-16.91-258.62-41.65,1.79,21.49,6.01,42.26,12.39,61.99,5.89,1.98,12.11,3.87,18.7,5.65,20.57,5.57,42.04,10.73,64.08,14.99Z"/>
      <path class="cls-10" d="M792.4,126.62c3.46-1.04,6.78-1.95,10.12-2.9,3.44-.94,11.26-2.76,19.55-4.62l-3.69-6.26c-6.98,1.52-13.7,3.1-20.18,4.73-3.32,3.33-6.55,6.75-9.69,10.25,1.31-.41,2.6-.81,3.88-1.21Z"/>
      <path class="cls-10" d="M847.22,160.08s0,0,.01,0l-3.48-5.68s-.01,0-.02,0c-11.06,2.84-20.23,5.21-24.94,6.4-13.68,3.41-27.58,7.21-41.73,11.5-8.32,2.49-16.73,5.17-25.25,8.02-3.16,5.92-6.12,11.98-8.85,18.17,30.44-13.2,70-27.12,104.27-38.4Z"/>
      <path class="cls-10" d="M925.59,287.8c-85.14-.91-139.68-12.29-174.62-26.25,4.1-3.05,8.99-6.61,10.81-7.95,7.87-5.87,16.93-11.83,27.12-17.84,2.12-1.23,23.28-12,25.39-12.91,11.46-5.28,22.58-9.93,33.7-14.14,5.52-2.07,15.29-5.31,24.02-8.14l-4.07-6.66c-5.58,1.58-11.18,3.22-16.79,4.92-13.44,4.06-27.06,8.45-40.83,13.21-7.74,2.68-15.66,5.49-23.47,8.59-7.83,3.09-15.76,6.43-23.67,9.94-7.94,3.67-15.98,7.55-23.92,11.66-4.4,2.35-8.74,4.71-13.05,7.26-4.15,18.7-6.41,38.16-6.58,58.14,49.8,18.99,126.6,33.81,242.12,39.09l-36.16-58.93Z"/>
      <path class="cls-10" d="M1076.29,533.38l-40.53-66.04c-3.29-.14-6.55-.29-9.78-.45-.99-.05-1.98-.1-2.97-.14-2.29-.11-4.58-.23-6.84-.35-1.06-.06-2.12-.11-3.17-.17-2.43-.13-4.85-.27-7.25-.4-.74-.04-1.49-.08-2.23-.13-3.09-.18-6.16-.37-9.2-.56-.74-.05-1.47-.1-2.21-.14-2.33-.15-4.65-.3-6.96-.46-.99-.07-1.98-.14-2.96-.21-2.15-.15-4.29-.3-6.42-.46-.87-.06-1.75-.13-2.61-.19-2.94-.22-5.87-.45-8.76-.68-.03,0-.07,0-.1,0-2.86-.23-5.68-.46-8.48-.7-.84-.07-1.67-.14-2.5-.22-2.06-.18-4.11-.36-6.14-.54-.87-.08-1.73-.16-2.59-.24-2.25-.21-4.49-.42-6.71-.63-.52-.05-1.05-.1-1.57-.15-2.75-.27-5.46-.54-8.16-.82-.56-.06-1.12-.12-1.68-.18-2.13-.22-4.24-.45-6.34-.67-.79-.09-1.57-.17-2.35-.26-1.98-.22-3.94-.44-5.89-.66-.67-.08-1.34-.15-2.01-.23-5.18-.6-10.25-1.22-15.23-1.86-.63-.08-1.25-.16-1.88-.24-1.9-.25-3.79-.49-5.66-.75-.65-.09-1.31-.17-1.95-.26-2.13-.29-4.23-.58-6.32-.87-.28-.04-.57-.08-.85-.12-2.44-.35-4.85-.7-7.25-1.05-.34-.05-.68-.1-1.02-.15-2-.3-3.99-.6-5.95-.9-.56-.09-1.11-.17-1.67-.26-1.87-.29-3.73-.59-5.57-.89-.42-.07-.85-.14-1.26-.2-4.54-.74-8.99-1.5-13.35-2.26-.41-.07-.82-.15-1.23-.22-1.8-.32-3.58-.64-5.34-.97-.41-.08-.83-.15-1.25-.23-2.07-.38-4.12-.77-6.14-1.16-.01,0-.03,0-.04,0-2.17-.42-4.31-.84-6.43-1.26-.14-.03-.27-.06-.41-.08-1.87-.38-3.73-.75-5.56-1.14-.36-.07-.72-.15-1.08-.22-1.76-.37-3.5-.74-5.22-1.11-.21-.05-.42-.09-.63-.13-3.95-.86-7.8-1.72-11.57-2.6-.23-.05-.46-.11-.68-.16-1.66-.39-3.3-.78-4.92-1.17-.24-.06-.49-.12-.73-.18-3.7-.9-7.3-1.8-10.82-2.71-13.17-3.42-25.09-6.97-35.87-10.56,7.74,17.09,17.17,33.18,28.07,48.04,10.66,3.79,22.18,7.55,34.65,11.27,62.93,18.78,149.78,36.44,269.58,50.1Z"/>
      <path class="cls-10" d="M1221.52,254.3c-8.74-3.31-18.3-6.41-28.77-9.25-20.57-5.57-42.04-10.73-64.08-14.99-22.16-4.31-44.95-7.98-68.3-11.17-23.45-3.25-47.27-6.06-71.37-8.7-5.09-.52-49.67-3.49-63.64-4.11l39.86,64.96c91.72,1.6,192.98,17.36,261.61,42.75,0-1.25.02-2.49.02-3.74,0-19.12-1.84-37.77-5.33-55.75Z"/>
      <path class="cls-10" d="M1097.21,486.15s0,0-.01,0l3.48,5.68s.01,0,.02,0c11.06-2.84,20.23-5.21,24.94-6.4,13.69-3.41,27.58-7.21,41.73-11.5,8.54-2.55,17.17-5.31,25.92-8.24,1.66-.57,3.32-1.14,4.99-1.72,2.86-5.91,5.46-12.01,7.83-18.27-30.98,13.8-72.87,28.58-108.9,40.44Z"/>
      <path class="cls-10" d="M1018.84,358.43c85.14.91,139.68,12.29,174.62,26.25-4.1,3.05-8.99,6.61-10.81,7.95-7.87,5.87-16.93,11.83-27.11,17.84-2.12,1.23-23.28,12-25.39,12.91-11.46,5.28-22.58,9.93-33.7,14.14-5.52,2.07-15.29,5.31-24.02,8.14l4.07,6.66c5.58-1.58,11.18-3.22,16.79-4.92,13.44-4.06,27.06-8.45,40.83-13.21,7.74-2.68,15.66-5.49,23.47-8.59,7.83-3.09,15.76-6.43,23.67-9.94,7.94-3.67,15.98-7.55,23.92-11.66,4.41-2.36,8.75-4.72,13.07-7.27.42.25.82.5,1.23.75,3.54-18.61,5.67-38.15,6.67-58.37-49.75-19.24-126.9-34.28-243.47-39.6l36.16,58.93Z"/>
      <path class="cls-10" d="M1152.03,519.61c-3.46,1.04-6.78,1.95-10.12,2.9-3.44.94-11.26,2.76-19.55,4.62l3.69,6.26c7.54-1.64,14.79-3.35,21.75-5.12,4.52-3.62,8.8-7.41,12.86-11.37-2.91.94-5.81,1.86-8.62,2.72Z"/>
      <path class="cls-10" d="M868.14,112.84l40.53,66.04c2.51.11,5,.22,7.48.34.68.03,1.35.06,2.02.1,2.07.1,4.13.2,6.18.3.44.02.88.04,1.31.07,2.42.12,4.82.25,7.2.38.6.03,1.19.07,1.78.1,1.93.11,3.84.22,5.75.33.58.03,1.16.07,1.74.1,2.35.14,4.68.28,7,.43.42.03.84.05,1.26.08,1.95.12,3.88.25,5.81.38.64.04,1.28.08,1.91.13,2.23.15,4.46.3,6.66.46.07,0,.14.01.21.02,2.24.16,4.45.32,6.66.49.65.05,1.29.1,1.94.15,1.8.14,3.59.28,5.37.42.46.04.91.07,1.37.11,2.15.17,4.28.35,6.4.53.58.05,1.15.1,1.73.15,1.67.14,3.33.29,4.98.43.58.05,1.16.1,1.74.15,2.07.19,4.13.37,6.18.56.46.04.91.09,1.36.13,1.66.16,3.3.31,4.94.47.64.06,1.28.12,1.91.19,1.85.18,3.69.37,5.52.55.29.03.58.06.88.09,1.88.19,3.74.39,5.6.59.63.07,1.26.14,1.89.2,1.53.16,3.04.33,4.55.5.49.05.98.11,1.46.16,1.88.21,3.75.43,5.6.64.59.07,1.17.14,1.76.21,1.38.16,2.76.33,4.13.49.62.07,1.24.15,1.85.22,1.79.22,3.57.44,5.34.66.51.06,1.02.13,1.53.2,1.35.17,2.7.35,4.04.52.66.09,1.31.17,1.96.26,1.47.19,2.93.39,4.38.59.54.07,1.07.15,1.61.22,1.5.21,2.99.41,4.47.62.67.09,1.33.19,1.99.28,1.19.17,2.37.34,3.55.51.58.08,1.17.17,1.74.25,1.59.24,3.17.47,4.74.71.66.1,1.32.2,1.98.3,1.06.16,2.11.33,3.16.49.68.11,1.35.21,2.02.32,1.51.24,3,.48,4.49.72.62.1,1.23.2,1.85.31,1.01.17,2.01.33,3.01.5.71.12,1.42.24,2.12.36,1.05.18,2.09.36,3.13.54.88.15,1.76.31,2.63.46,1.05.19,2.1.37,3.15.56.72.13,1.44.26,2.16.39.85.16,1.69.31,2.54.47.68.13,1.37.25,2.05.38,1.32.25,2.62.5,3.92.75.72.14,1.43.28,2.14.41.76.15,1.52.3,2.28.45.73.14,1.45.29,2.17.43,1.01.2,2.02.41,3.02.61.93.19,1.85.38,2.76.57.71.15,1.43.3,2.13.44.74.16,1.48.31,2.21.47.67.14,1.34.29,2.01.43,1.2.26,2.39.52,3.57.78.65.14,1.29.29,1.94.43.75.17,1.5.34,2.24.5.57.13,1.14.26,1.71.39,1.25.29,2.48.57,3.71.86.57.13,1.14.27,1.7.4.76.18,1.52.36,2.27.54.5.12,1,.24,1.5.36.76.18,1.52.37,2.27.55.4.1.8.2,1.2.3,1.37.34,2.74.68,4.08,1.03.44.11.89.23,1.33.34.75.19,1.49.38,2.23.58.41.11.81.21,1.22.32,1.36.36,2.71.72,4.04,1.08.34.09.68.18,1.02.27.75.2,1.49.41,2.22.61.37.1.75.21,1.12.31,1.64.46,3.27.91,4.87,1.37,13.23,3.79,25.03,7.7,35.57,11.62-4.4-14.79-9.97-29-16.59-42.53-11.23-4.78-23.66-9.55-37.45-14.26-64.12-21.93-157.32-42.71-292.74-57.73Z"/>
    </g>
  </g>
</svg>